<svg width="150" height="30" viewBox="0 0 150 30" fill="none" xmlns="http://www.w3.org/2000/svg">
<path d="M37.7935 2.28218C36.9275 2.28218 36.2307 2.97933 36.2307 3.84582V22.9325C36.2307 23.799 36.928 24.4961 37.7935 24.4961H49.7876C50.0144 24.4961 50.1967 24.3138 50.1967 24.0869V21.8972C50.1967 21.6703 50.0144 21.4879 49.7876 21.4879H39.5881V14.508H48.7592C48.986 14.508 49.1682 14.3256 49.1682 14.0987V12.0298C49.1682 11.8029 48.986 11.6206 48.7592 11.6206H39.5881V5.21924H49.7871C50.0139 5.21924 50.1961 5.03691 50.1961 4.80998V2.69087C50.1961 2.46395 50.0139 2.28162 49.7871 2.28162H37.7935V2.28218Z" fill="#AFB6C2"/>
<path d="M78.2837 7.84302C75.4296 7.84302 73.6575 8.82637 72.4711 10.4617V8.75355C72.4711 8.52662 72.2888 8.34429 72.0621 8.34429H69.5921C69.3653 8.34429 69.1831 8.52662 69.1831 8.75355V29.5907C69.1831 29.8176 69.3653 29.9999 69.5921 29.9999H72.1044C72.3312 29.9999 72.5134 29.8176 72.5134 29.5907V22.4623C73.6141 24.0479 75.398 24.9867 78.2831 24.9867C83.1355 24.9867 86.1566 21.1442 86.1566 16.4098C86.1566 11.6754 83.1981 7.84302 78.2837 7.84302ZM77.579 10.5994C81.0701 10.5994 82.7874 13.2006 82.7874 16.4098C82.7874 19.6183 81.0701 22.2201 77.579 22.2201C74.088 22.2201 72.3706 19.6189 72.3706 16.4098C72.3706 13.2012 74.088 10.5994 77.579 10.5994Z" fill="#AFB6C2"/>
<path d="M127.016 8.34424H129.5C129.727 8.34424 129.909 8.52657 129.909 8.7535V24.0868C129.909 24.3138 129.727 24.4961 129.5 24.4961H127.016C126.79 24.4961 126.607 24.3138 126.607 24.0868V8.7535C126.607 8.52657 126.79 8.34424 127.016 8.34424Z" fill="#AFB6C2"/>
<path d="M126.981 2.27429H129.536C129.763 2.27429 129.945 2.45662 129.945 2.68355V5.24014C129.945 5.46707 129.763 5.6494 129.536 5.6494H126.981C126.754 5.6494 126.572 5.46707 126.572 5.24014V2.68355C126.572 2.45662 126.754 2.27429 126.981 2.27429Z" fill="#AFB6C2"/>
<path d="M113.95 24.9867C116.804 24.9867 118.576 24.0034 119.762 22.368V24.0863C119.762 24.3133 119.945 24.4956 120.171 24.4956H122.641C122.868 24.4956 123.05 24.3133 123.05 24.0863V2.69148C123.05 2.46456 122.868 2.28223 122.641 2.28223H120.129C119.902 2.28223 119.72 2.46456 119.72 2.69148V10.4583C118.539 8.91276 116.836 7.84305 113.95 7.84305C109.098 7.84305 106.077 11.6856 106.077 16.42C106.077 21.1544 109.035 24.9867 113.95 24.9867ZM114.654 22.2303C111.163 22.2303 109.446 19.6291 109.446 16.42C109.446 13.2114 111.163 10.6096 114.654 10.6096C118.146 10.6096 119.863 13.2108 119.863 16.42C119.863 19.6285 118.145 22.2303 114.654 22.2303Z" fill="#AFB6C2"/>
<path d="M140.621 7.85315C135.706 7.85315 132.747 11.6861 132.747 16.4199C132.747 21.1537 135.706 24.9867 140.621 24.9867C143.475 24.9867 145.247 24.0033 146.433 22.368V24.0863C146.433 24.3132 146.616 24.4955 146.842 24.4955H149.312C149.539 24.4955 149.721 24.3132 149.721 24.0863V16.4199V8.75352C149.721 8.52659 149.539 8.34426 149.312 8.34426H146.842C146.616 8.34426 146.433 8.52659 146.433 8.75352V10.4718C145.246 8.8365 143.474 7.85315 140.621 7.85315ZM141.325 10.6096C144.817 10.6096 146.534 13.2108 146.534 16.4199C146.534 19.6285 144.817 22.2302 141.325 22.2302C137.834 22.2302 136.117 19.629 136.117 16.4199C136.117 13.2113 137.834 10.6096 141.325 10.6096Z" fill="#AFB6C2"/>
<path d="M52.8408 8.34424C52.4877 8.34424 52.4245 8.6231 52.5847 8.84381L57.8416 16.0467L52.0719 23.9954C51.9116 24.2161 51.9748 24.4955 52.328 24.4955H55.1742C55.4213 24.4955 55.5494 24.4114 55.6312 24.29L59.5629 18.4848L63.6576 24.29C63.7416 24.4097 63.868 24.4955 64.1146 24.4955H67.0697C67.4228 24.4955 67.4866 24.2161 67.3258 23.9954L61.5228 16.0467L66.7464 8.84381C66.9066 8.6231 66.8434 8.34424 66.4903 8.34424H63.6999C63.4528 8.34424 63.3247 8.42891 63.2429 8.54971L59.793 13.6228L56.2292 8.54971C56.1451 8.43004 56.0188 8.34424 55.7722 8.34424H52.8408Z" fill="#AFB6C2"/>
<path d="M96.1245 7.84302C91.1824 7.84302 88.2075 11.3988 88.2075 16.4148C88.2075 21.9474 91.7234 24.9867 96.1245 24.9867C101.443 24.9867 103.539 21.8571 103.656 21.7397C103.791 21.6048 103.754 21.3536 103.641 21.243L102.104 19.7352C101.99 19.624 101.775 19.6071 101.626 19.7572C101.513 19.8707 99.6421 22.237 96.5764 22.237C93.3177 22.237 91.7138 20.2393 91.4977 17.2966H103.641C104.017 17.2966 104.038 16.9618 104.039 16.7417C104.064 10.7677 100.594 7.84302 96.1245 7.84302ZM96.1352 10.4431C99.1241 10.4431 100.377 12.2415 100.641 14.8032H91.6162C91.9705 12.2918 93.289 10.4431 96.1352 10.4431Z" fill="#AFB6C2"/>
<path fill-rule="evenodd" clip-rule="evenodd" d="M6.25814 0H21.9454C25.0235 0 27.5018 2.47982 27.5018 5.55969V21.256C27.5018 24.3359 25.0235 26.8157 21.9454 26.8157H6.25814C3.18004 26.8157 0.70166 24.3359 0.70166 21.256V5.55969C0.70166 2.47982 3.18004 0 6.25814 0ZM8.19606 4.80102C7.94614 4.80102 7.7893 4.8586 7.65728 4.99069L4.97918 7.67034C4.92954 7.72001 4.90133 7.78776 4.90133 7.85775C4.90133 8.00452 5.0198 8.12306 5.16649 8.12306H16.7759L9.63864 15.2645C9.49816 15.405 9.41636 15.4869 9.41636 15.7635V17.6427C9.41636 17.7567 9.46826 17.8549 9.54216 17.9294C9.61663 18.004 9.7148 18.0553 9.82876 18.0553H11.7069C11.9827 18.0553 12.0646 17.9735 12.205 17.8329L19.3423 10.6915V22.3077C19.3423 22.4539 19.4608 22.573 19.6075 22.573C19.678 22.573 19.7451 22.5447 19.7948 22.4951L22.4729 19.8154C22.6049 19.6833 22.6624 19.5258 22.6624 19.2763V6.59216C22.6624 5.60316 21.8613 4.80158 20.8729 4.80158L8.19606 4.80102ZM8.49789 18.5769H5.9219C5.70639 18.5769 5.53263 18.7502 5.53319 18.9658V21.5597C5.53319 21.7753 5.70639 21.9486 5.9219 21.9486H8.49789C8.7134 21.9486 8.8866 21.7753 8.8866 21.5597V18.9658C8.8866 18.7502 8.7134 18.5769 8.49789 18.5769Z" fill="#AFB6C2"/>
</svg>
