<svg width="165" height="30" viewBox="0 0 165 30" fill="none" xmlns="http://www.w3.org/2000/svg">
<path d="M28.9157 0.0223864C30.6831 1.36594e-06 32.4729 0.0223851 34.2403 0C37.1934 7.85716 40.1242 15.7143 43.0549 23.5939H37.6856C37.0815 21.8478 36.4999 20.1018 35.9182 18.3558C32.9651 18.3558 30.012 18.3334 27.0812 18.3558C26.4995 20.1018 25.8507 21.8478 25.2467 23.5939C23.5017 23.5939 21.7566 23.5939 20.034 23.5939C22.9871 15.7367 25.9626 7.87955 28.9157 0.0223864ZM31.5333 5.79774C30.5041 8.68541 29.475 11.5955 28.4459 14.4832H34.5311C33.5691 11.685 32.6071 8.88688 31.6451 6.08875C31.6227 5.99921 31.578 5.88728 31.5333 5.79774ZM102.162 0.0223864H106.838C106.838 7.87955 106.838 15.7591 106.838 23.6163H102.14C102.14 15.7367 102.14 7.87955 102.162 0.0223864ZM110.574 0.0223864H115.787C115.787 6.42452 115.787 12.849 115.787 19.2512C119.612 19.2512 123.438 19.2512 127.264 19.2512C127.308 20.7062 127.264 22.1612 127.286 23.6163C121.738 23.6163 116.167 23.6163 110.619 23.6163C110.596 15.7591 110.596 7.87955 110.574 0.0223864ZM129.21 0.0223864H133.908C133.908 1.32072 133.908 2.59667 133.908 3.89501C132.342 3.89501 130.776 3.89501 129.21 3.89501C129.21 2.59667 129.21 1.32072 129.21 0.0223864ZM3.92604 1.11925C4.41823 0.402931 5.60395 0.134313 6.208 0.828251C7.03577 1.72365 7.52796 2.86529 8.02015 3.96216C8.71368 5.59627 9.27298 7.29754 9.85466 8.97642C10.6377 6.82745 11.3312 4.63371 12.4498 2.64144C12.763 2.05943 13.1657 1.54457 13.6579 1.11925C14.3067 0.604397 15.3358 0.917788 15.7833 1.56696C16.2531 2.26089 16.186 3.17868 16.007 3.96216C15.4924 6.17829 14.7318 8.30487 13.9711 10.4315C14.8213 10.6105 15.6938 11.0135 16.0965 11.8193C16.5663 12.7819 16.611 13.8788 16.5887 14.9309C16.5663 16.7888 16.0965 18.6468 15.045 20.1913C13.9488 21.8702 12.2485 23.079 10.3245 23.6163C8.19912 24.1311 5.82768 23.9744 3.92604 22.8552C2.71795 22.1388 1.7112 21.1315 1.01767 19.9227C0.301758 18.6692 0.122781 17.2141 0.480735 15.8263C0.771573 14.7965 1.77832 14.2145 2.76269 14.0131C2.5166 13.3415 2.1139 12.6252 2.42711 11.9089C2.74032 11.2373 3.27725 10.6777 3.97079 10.3419C4.61958 10.0509 5.31312 10.3419 5.87242 10.6553C5.08939 8.41679 4.284 6.20067 3.70232 3.89501C3.4786 2.9996 3.34437 1.92512 3.92604 1.11925ZM4.66433 1.83558C4.39586 2.37282 4.57484 2.97722 4.66433 3.53684C5.17888 5.68581 6.00665 7.74524 6.74493 9.82705C7.30424 9.28981 8.17675 9.62559 8.87029 9.62559C8.3781 8.19294 7.88591 6.73791 7.37135 5.30527C7.05814 4.38748 6.74493 3.46969 6.34224 2.57428C6.16326 2.21612 5.96191 1.81319 5.60395 1.58934C5.29074 1.38788 4.86567 1.4998 4.6867 1.81319C4.66432 1.81319 4.66433 1.81319 4.66433 1.83558ZM13.725 2.32805C13.0986 3.08914 12.7854 4.0517 12.4498 4.96949C11.9129 6.58122 11.3088 8.19294 10.7943 9.80467C11.4655 9.9166 12.1366 10.0285 12.8078 10.1404C13.5908 7.99148 14.3962 5.82012 14.9779 3.604C15.1121 3.11153 15.1792 2.48475 14.7765 2.1042C14.4409 1.83558 13.9711 2.01466 13.725 2.32805ZM7.25949 10.9911C7.10289 11.5283 7.25949 12.1103 7.63982 12.5133C8.06489 12.8714 8.57945 13.1177 9.11638 13.2072C10.3916 13.4758 11.7115 13.4534 13.0091 13.4758C13.4118 13.4311 13.8145 14.1698 13.3223 14.3265C12.5393 14.7742 11.5997 14.9532 10.9061 15.58C9.8994 16.4083 9.04926 17.5947 9.00452 18.9378C8.95977 19.7884 9.51908 20.5495 9.49671 21.4001C9.11638 21.3554 8.7808 21.1763 8.55708 20.8629C8.02014 20.1466 7.93066 19.2064 7.95303 18.3558C7.61745 18.5348 7.23712 18.5796 6.87917 18.4453C6.96865 18.8259 7.0134 19.2288 6.83442 19.6093C6.52121 20.2585 5.8053 20.5943 5.11177 20.4824C4.14977 20.348 3.38911 19.6541 2.80744 18.9378C2.40474 18.4005 2.09153 17.6394 2.44948 17.0127C3.09828 17.7514 3.59046 18.7363 4.53009 19.184C4.95516 19.4079 5.62633 19.3183 5.82768 18.8259C5.87242 18.4229 5.60395 18.0648 5.42498 17.729C4.97753 17.0127 4.4406 16.3411 3.85893 15.7143C3.59046 15.4457 3.322 15.1323 2.9193 15.0428C2.31525 15.0204 1.86781 15.5129 1.59934 16.0053C1.19664 16.7888 1.33088 17.7066 1.64409 18.4677C2.09153 19.5646 2.80744 20.5495 3.72469 21.3106C5.42498 22.7209 7.79642 23.1238 9.92178 22.6089C11.5102 22.1836 12.8973 21.2434 13.8593 19.9227C14.9108 18.4677 15.4924 16.7217 15.5148 14.9309C15.5148 14.125 15.5372 13.2744 15.224 12.5133C14.9555 11.8865 14.2843 11.6179 13.7027 11.394C11.9353 10.8344 10.0784 10.5434 8.22149 10.5658C7.84117 10.5434 7.37135 10.5881 7.25949 10.9911ZM4.4406 11.394C3.94842 11.5955 3.59046 11.9984 3.4786 12.5133C3.50097 13.1848 3.90367 13.7668 4.21688 14.3488C4.79856 15.289 5.51447 16.162 6.34224 16.9007C6.63307 17.1246 6.99103 17.4156 7.39372 17.3932C7.84117 17.2813 8.10963 16.8336 7.99777 16.3859C7.99777 16.3411 7.9754 16.3187 7.95303 16.274C7.5727 15.0652 7.05814 13.9011 6.38698 12.8267C6.11851 12.3566 5.73819 11.9313 5.31312 11.5955C5.06702 11.394 4.75381 11.3045 4.4406 11.3716M8.19912 14.0131C8.5347 14.6622 8.7808 15.3562 8.98215 16.0501C9.47433 15.4457 10.056 14.9309 10.6824 14.4832C9.83229 14.4608 9.00452 14.3041 8.19912 14.0131ZM156.012 1.41026C157.578 1.41026 159.122 1.41026 160.688 1.41026C160.71 3.11153 160.688 4.83518 160.688 6.53645H164.111V9.67036H160.688C160.688 12.558 160.688 15.4681 160.688 18.3558C160.71 18.9154 160.799 19.6541 161.404 19.9003C162.276 20.2137 163.216 20.0794 164.111 19.9675C164.111 21.1763 164.111 22.3851 164.111 23.5939C162.612 23.7953 161.09 23.7953 159.591 23.6386C158.518 23.5267 157.354 23.1238 156.683 22.206C156.146 21.4897 156.012 20.5943 156.012 19.7213C156.012 16.3635 156.012 13.0057 156.012 9.64797C155.072 9.64797 154.133 9.64797 153.193 9.64797C153.171 8.59587 153.193 7.56616 153.193 6.51406H156.034C156.012 4.81279 156.012 3.11153 156.012 1.41026ZM49.7442 8.08102C50.9299 6.67076 52.8315 6.02159 54.6437 6.08875C56.1202 6.11113 57.6639 6.42452 58.8049 7.43185C59.834 8.32725 60.2815 9.69274 60.4604 11.0135C60.6394 12.3342 60.5947 13.6325 60.5947 14.9309C60.5947 17.8185 60.5947 20.7286 60.5947 23.6163H55.8965C55.8965 20.3257 55.8965 17.0574 55.8965 13.7668C55.8741 12.7147 55.7847 11.5955 55.1806 10.7225C54.6213 9.93898 53.5922 9.73751 52.6973 9.78228C51.7129 9.80467 50.6391 10.1404 50.0574 11.0135C49.3862 12.0208 49.2967 13.2744 49.2744 14.4608C49.2744 17.5051 49.2744 20.5719 49.2744 23.6163H44.5986C44.5986 17.9305 44.5986 12.2223 44.5986 6.53645H49.0283C49.0283 7.34231 49.0059 8.14817 49.0506 8.97642C49.3191 8.68541 49.4981 8.34964 49.7442 8.08102ZM69.3645 6.13351C70.9082 5.93205 72.5861 6.08874 73.9285 6.93938C74.6667 7.40946 75.1813 8.12579 75.6511 8.84211C75.6735 8.05863 75.6511 7.29754 75.6511 6.51406C77.1277 6.49168 78.6042 6.51406 80.0808 6.51406C80.0808 11.2597 80.0808 16.0053 80.0808 20.7286C80.0584 22.0717 80.1703 23.4372 79.8347 24.7355C79.4767 26.5487 78.1792 28.0933 76.546 28.9215C74.6891 29.9736 72.4966 30.0632 70.416 29.9736C68.4025 29.8393 66.2996 29.123 64.9349 27.5784C64.1966 26.7278 63.7715 25.6757 63.7044 24.5564C65.2481 24.5564 66.8141 24.5564 68.3578 24.5564C68.5591 25.2951 68.9618 26.0339 69.6778 26.392C70.8635 26.974 72.2505 27.0636 73.5034 26.6159C74.8233 26.1234 75.4945 24.6907 75.584 23.37C75.6287 22.3851 75.6064 21.4001 75.584 20.4152C75.2484 20.9748 74.801 21.4897 74.2864 21.8926C72.9441 22.8776 71.2214 23.2133 69.5883 23.0566C67.888 22.9671 66.2996 22.206 65.1586 20.9301C63.9057 19.5198 63.3688 17.6394 63.1898 15.7815C62.9661 13.4982 63.3464 11.0806 64.644 9.13312C65.7403 7.52139 67.4405 6.42452 69.3645 6.13351ZM70.7292 9.69275C69.4764 9.98375 68.5591 11.0806 68.1788 12.267C67.7985 13.6773 67.7761 15.1771 68.1341 16.6097C68.4249 17.8185 69.2527 18.9602 70.4384 19.3855C71.378 19.6765 72.3848 19.6317 73.2797 19.2288C74.1969 18.7811 74.8905 18.02 75.2484 17.0574C75.7853 15.7591 75.7182 14.3041 75.4721 12.9386C75.2932 11.9313 74.8233 10.9239 73.9956 10.2971C73.0783 9.58082 71.8255 9.46889 70.7292 9.69275ZM88.7836 6.40214C90.2601 5.9992 91.8262 5.93205 93.3251 6.24544C95.2938 6.67075 97.0165 7.87955 98.1127 9.58082C99.3656 11.5283 99.7907 13.9011 99.6564 16.1844C95.5399 16.1844 91.4458 16.1844 87.3294 16.1844C87.3965 17.3484 87.6202 18.602 88.448 19.4526C89.3876 20.3928 90.8194 20.5943 92.0946 20.4824C93.3698 20.3704 94.7122 19.5646 95.2267 18.311C96.5914 18.311 97.9785 18.311 99.3432 18.311C98.8286 19.9003 97.9785 21.4897 96.5914 22.497C94.9359 23.7058 92.8329 24.1087 90.8194 24.0192C88.8507 23.952 86.8596 23.3029 85.383 21.9598C83.8393 20.5719 82.9668 18.5796 82.7207 16.5426C82.4522 14.416 82.7655 12.1999 83.8169 10.3195C84.9132 8.41679 86.7029 7.00653 88.7836 6.40214ZM88.6717 10.4091C87.8216 11.0806 87.4189 12.1551 87.3294 13.2072H94.9583C94.7793 12.267 94.4885 11.3269 93.862 10.5881C93.3922 10.0509 92.7211 9.69274 92.0051 9.62559C90.8418 9.49128 89.589 9.64797 88.6717 10.4091ZM139.546 6.96176C141.157 6.17828 142.969 6.02159 144.736 6.06636C146.683 6.13351 148.763 6.53644 150.195 7.9467C151.179 8.86449 151.672 10.1852 151.761 11.5059H147.309C147.242 10.8344 147.018 10.1181 146.414 9.7599C145.497 9.20027 144.378 9.13312 143.349 9.24504C142.7 9.3122 142.007 9.53605 141.649 10.1181C141.38 10.6553 141.47 11.3269 141.917 11.7522C142.454 12.2446 143.17 12.4685 143.864 12.6476C145.34 13.0281 146.862 13.2744 148.316 13.7221C149.211 13.9683 150.038 14.3712 150.777 14.9309C151.56 15.5353 152.052 16.4307 152.186 17.4156C152.32 18.7363 152.119 20.169 151.336 21.2658C150.441 22.6089 148.92 23.3924 147.376 23.7282C145.251 24.1759 143.058 24.1311 140.955 23.5939C139.546 23.1909 138.181 22.3851 137.353 21.1539C136.727 20.2585 136.481 19.1392 136.414 18.0648C137.89 18.0648 139.389 18.0648 140.866 18.0648C140.866 18.6915 141.067 19.2959 141.47 19.766C142.231 20.6614 143.483 20.9524 144.602 20.9301C145.475 20.8853 146.437 20.6614 147.063 20.0123C147.6 19.475 147.712 18.5125 147.242 17.9081C146.772 17.3484 146.034 17.147 145.363 16.9231C143.461 16.2963 141.47 16.0949 139.613 15.3562C138.629 14.9532 137.667 14.2817 137.197 13.2967C136.727 12.3566 136.772 11.2373 136.951 10.23C137.264 8.77496 138.226 7.58854 139.546 6.96176ZM129.188 6.53645C130.754 6.51406 132.32 6.53645 133.886 6.51406V23.5939H129.188C129.188 17.9081 129.188 12.2223 129.188 6.53645Z" fill="#AFB6C2"/>
</svg>
