<svg width="160" height="30" viewBox="0 0 160 30" fill="none" xmlns="http://www.w3.org/2000/svg">
<path d="M0.425027 0V1.85106H21.2708C23.5997 1.85106 25.4922 3.80549 25.4922 6.21113V30H30.4028V9.1896C30.4028 3.95143 26.1595 0 21.5005 0H0.425027ZM12.6371 15.7413L0.426244 7.64624V9.99959L11.4131 17.281C13.3688 18.5799 13.8745 21.3857 12.5374 23.5335L8.51537 29.9963H14.3607L15.0037 28.9528C18.1129 23.9008 16.3128 18.1785 12.6371 15.7413ZM6.40405 18.3719L0.420166 11.9796V14.8279L4.86767 19.5784C6.48306 21.3078 6.3603 24.1647 4.57473 25.9306C3.54156 26.9498 0.420166 29.9951 0.420166 29.9951H7.0118C10.1891 24.7898 8.66366 20.7861 6.40405 18.3719ZM24.0081 19.233C25.0571 14.2526 22.5094 8.94393 17.3119 7.71678L0.427459 3.72887V5.76235L16.6859 9.60676C18.9565 10.1164 20.3847 12.5585 19.8596 15.0566L16.7163 29.9976H21.7412L24.0081 19.233ZM47.1244 18.198V22.0692H58.3361V24.9382H44.0735V4.75656H58.0626V7.62557H47.1256V14.9288C48.0749 13.8002 49.5214 13.079 51.1161 13.079H56.9286V15.9432H49.4715C48.1928 15.9432 47.1365 16.9611 47.1256 18.198V18.1968H47.1244V18.198ZM111.207 10.643H108.47V24.937H111.207V10.643ZM91.4706 4.75656H88.7345V24.9382H91.4706V4.75656ZM158.611 10.379C157.025 10.379 155.584 11.0954 154.635 12.224V10.6442H151.835V24.9382H154.635C154.635 24.9382 154.647 15.8872 154.647 15.2949C154.647 14.148 155.765 13.2639 156.964 13.2639H159.901V10.379H158.611ZM73.3487 10.643H70.0316L66.6319 15.6038L63.2066 10.643H59.8895L64.8463 17.5376L59.6331 24.937H62.972L66.6319 19.531L70.2407 24.937H73.6076L68.3956 17.5376L73.3487 10.643ZM87.0194 15.2317C86.2415 12.3846 83.492 10.3803 80.2309 10.3803C76.3559 10.3803 73.0132 13.0839 73.0132 17.8173C73.0132 22.0874 75.9171 25.2264 80.2309 25.2264C83.4847 25.2264 86.2306 23.2306 87.0145 20.3932L84.2529 19.6891C83.7485 21.3784 82.1635 22.5179 80.2248 22.5179C77.338 22.5179 75.8612 20.2436 75.8612 17.8137C75.8612 15.093 77.575 13.0887 80.2211 13.0887C82.1599 13.0887 83.7473 14.2295 84.2493 15.9213L87.0194 15.2317ZM106.309 15.5041V24.9382H103.816L103.841 23.2768C102.704 24.5928 100.254 25.2264 98.4293 25.2264C95.3067 25.2264 93.0543 24.0333 93.0543 21.0366C93.0543 15.8568 99.2376 16.2557 103.56 16.2557V15.5041C103.56 14.0726 102.512 12.7494 100.872 12.7494H98.7526C97.2284 12.7494 96.4128 13.9316 96.4128 15.5041H93.6621C93.6621 11.2742 96.837 10.379 98.8292 10.379H100.787H100.796C104.154 10.379 106.309 12.5779 106.309 15.5041ZM103.56 18.7635C99.9049 18.7635 95.7807 18.4984 95.7807 21.0098C95.7807 22.1008 96.4808 22.6906 98.3296 22.6906C100.752 22.6906 103.353 21.3443 103.543 19.2087C103.554 19.0761 103.56 18.9545 103.56 18.8316V18.7635ZM109.91 4.75656C108.874 4.75656 108.038 5.59573 108.038 6.6295C108.038 7.66327 108.876 8.50245 109.91 8.50245C110.945 8.50245 111.781 7.66327 111.781 6.6295C111.783 5.59573 110.945 4.75656 109.91 4.75656ZM147.425 20.4528L150.036 21.0731C149.03 23.9093 146.382 25.2252 143.601 25.2252C139.322 25.2252 136.332 22.1129 136.332 17.658C136.332 13.439 139.372 10.3766 143.333 10.3766C147.698 10.3766 150.477 13.934 149.992 18.8304H139.223C139.718 21.5474 141.655 22.5994 143.627 22.5994C145.999 22.6019 147.015 21.2421 147.425 20.4528ZM139.275 16.3567H147.1C147.1 16.3567 146.733 12.9987 143.302 12.9987C139.87 12.9987 139.275 16.3567 139.275 16.3567ZM134.833 15.0298V24.9382H132.106V15.5406C132.106 14.2879 131.074 13.2687 129.805 13.2639H127.818C126.545 13.2639 125.509 14.2867 125.509 15.5406V24.9382H122.774V15.5406C122.774 14.2879 121.73 13.2687 120.444 13.2639H118.433C117.144 13.2639 116.097 14.2867 116.097 15.5406L116.09 24.9382H113.363V10.6417H116.09V12.2216C116.09 12.2216 117.431 10.379 120.132 10.379C122.928 10.379 124.409 12.1802 124.871 13.1641C125.468 11.9625 126.978 10.379 129.67 10.379C132.61 10.379 134.833 12.7652 134.833 15.0298Z" fill="#AFB6C2"/>
</svg>
