<svg width="107" height="30" viewBox="0 0 107 30" fill="none" xmlns="http://www.w3.org/2000/svg">
<path d="M104.943 12.1212C103.656 10.4293 101.789 9.59596 99.2902 9.59596C95.4035 9.59596 92.1731 11.0354 89.6241 13.8636C87.2517 16.4394 86.116 19.2424 86.3179 22.298C86.3179 22.5253 86.3431 22.7525 86.3684 22.9798C86.2169 23.0303 86.116 23.0808 85.9646 23.1566C82.936 24.4697 80.1346 25.1263 77.5603 25.1263C76.2732 25.1263 75.3142 24.6717 74.6832 23.7879C78.1408 23.2323 81.0179 21.8687 83.2893 19.7727C85.4093 17.8283 86.4188 15.9848 86.2927 14.1667C86.0655 11.3131 84.2231 9.89899 80.7151 9.89899C76.9294 9.89899 73.6485 11.3384 70.8723 14.1919C68.3485 16.7929 67.0614 19.5455 67.0361 22.4242C67.0361 22.904 67.0614 23.3838 67.1118 23.8384C66.5314 24.2424 66.0519 24.4192 65.7742 24.4192C65.0928 24.4192 64.689 24.2677 64.4871 23.9899C64.3104 23.7121 64.2347 23.2071 64.26 22.4495C64.26 22.1717 64.4871 21.0859 64.9414 19.1667C65.3957 17.2475 65.6228 15.8081 65.6733 14.8232C65.749 13.3586 65.4461 12.2475 64.8152 11.4646C64.058 10.505 62.8214 10.101 61.1052 10.2273C59.6667 10.3283 58.3038 10.8838 56.9914 11.8182C56.2091 12.3737 55.4015 13.1566 54.5938 14.1162C54.3162 14.3687 54.0386 14.596 53.7862 14.8232C53.8115 13.3586 53.5338 12.2475 52.9281 11.4646C52.171 10.505 50.9343 10.101 49.1677 10.2273C47.1234 10.404 45.3063 11.2121 43.6406 12.6263C42.9339 13.2323 42.303 13.9394 41.773 14.7475C41.8487 14.4444 41.8739 14.0657 41.8739 13.7374C41.8739 12.6515 41.5963 11.6667 41.0158 10.8333C40.4606 10 39.7035 9.59596 38.7697 9.67171C38.2397 9.69697 37.2302 10.4293 35.7159 11.7929C33.6464 13.7374 32.5107 14.7727 32.3592 14.899L33.6464 16.3636C34.6559 15.6313 35.2364 15.2778 35.4635 15.2778C35.8673 15.2778 36.0187 15.5808 35.943 16.2374C35.9178 17.1717 35.7411 18.4596 35.4383 20.101C35.2364 21.1364 35.1354 22.0202 35.0345 22.7525C35.0092 22.7525 35.0092 22.7778 34.984 22.7778C33.6968 23.8384 32.7883 24.3434 32.334 24.3434C31.1731 24.3434 30.6431 23.5859 30.6683 22.0455C31.1983 18.7121 31.7031 15.9596 32.1573 13.7626C32.3088 12.4747 32.1069 11.4394 31.5516 10.6566C30.9964 9.84848 30.1131 9.49495 28.9521 9.62121C28.195 9.69697 27.034 10.404 25.545 11.7424C25.015 12.2222 24.485 12.702 23.955 13.2071C23.8541 10.6818 22.6931 9.39394 20.4974 9.31818C17.1913 9.21717 14.9451 11.0859 13.8094 14.9242C14.4151 14.6717 15.0208 14.5202 15.576 14.5202C16.7875 14.5202 17.3174 15.202 17.166 16.5657C17.0903 17.3737 16.5603 18.5859 15.576 20.1515C14.5665 21.7172 13.8346 22.5 13.3299 22.5C12.6737 22.5 12.0932 21.2879 11.5632 18.8636C11.3865 18.1566 11.0584 16.3384 10.6042 13.3838C10.1751 10.6566 9.03941 9.39394 7.19705 9.57071C6.41467 9.64646 5.22849 10.3535 3.66374 11.6919C2.50279 12.7273 1.36709 13.7626 0.180908 14.798L1.29137 16.2626C2.35137 15.5051 2.98231 15.1515 3.15898 15.1515C3.96659 15.1515 4.72373 16.4394 5.45563 18.9899L7.39895 26.0606C8.35799 28.6364 9.51893 29.899 10.9323 29.899C13.1784 29.899 15.9294 27.803 19.1346 23.5859C21.406 20.6313 22.895 18.1818 23.5512 16.1616C24.4598 15.4798 25.015 15.1515 25.2169 15.1515C25.8731 15.1515 26.176 15.6313 26.176 16.5657C26.176 16.7424 25.8479 18.0556 25.1412 20.5303C24.4345 23.005 24.0812 24.8232 24.056 26.0101C24.0307 27.1717 24.3083 28.0808 24.8888 28.7879C25.4693 29.495 26.3274 29.8485 27.4378 29.8485C29.8102 29.8485 32.2331 28.8131 34.6054 26.7424C34.8326 26.5404 35.0345 26.3889 35.2111 26.1869C35.413 26.995 35.7159 27.6515 36.1954 28.1566C37.2302 29.2424 38.9716 29.7727 41.4196 29.697C41.1168 28.9141 40.9654 27.5 41.0158 25.5303C41.1168 23.3081 41.6973 21.1869 42.732 19.1667C43.7668 17.1212 44.7258 16.1111 45.6091 16.1111C46.6439 16.1111 47.1234 16.7929 47.0729 18.1061C47.0477 19.0152 46.871 20.0253 46.5429 21.1616C46.2401 22.3232 46.0382 23.4343 46.0129 24.5707C45.9372 26.3889 46.341 27.6768 47.2496 28.4596C48.2339 29.3687 50.0005 29.7475 52.4739 29.697C52.1205 28.8889 51.9439 27.702 52.0196 26.1616C52.1205 23.9646 52.8524 21.7424 54.2405 19.3939C55.5276 17.1717 56.6381 16.0859 57.5719 16.0859C58.43 16.0859 58.8338 16.7677 58.8086 18.1061C58.7833 19.0152 58.5562 20.2273 58.1271 21.8687C57.6981 23.4596 57.471 24.8485 57.4457 25.9848C57.37 28.5606 58.5057 29.8232 60.8024 29.8232C63.1747 29.8232 65.5976 28.7879 67.9699 26.7172L68.0709 26.6162L68.3233 27.0455C69.5599 28.9899 71.6294 29.9242 74.5066 29.9242C78.3932 29.9242 82.2294 28.8384 85.9898 26.6667C86.4188 26.4141 86.7974 26.1869 87.2012 25.9343C87.4536 26.4141 87.706 26.8687 88.0341 27.2727C89.4979 29.0909 91.6431 30 94.4445 30C97.8264 30 100.678 28.7879 102.975 26.4141C105.246 24.0404 106.483 21.1869 106.609 17.9293C106.71 15.6313 106.18 13.6616 104.943 12.1212ZM73.7999 21.7677C73.7747 21.3131 73.7747 21.0606 73.7999 21.0606C73.8251 19.7222 74.4056 18.3081 75.5161 16.8182C76.6013 15.3283 77.7118 14.596 78.7718 14.596C79.5794 14.596 79.9832 15.0758 79.9579 16.0354C79.9327 16.7424 79.4027 17.6515 78.3679 18.8131C77.0556 20.1515 75.5413 21.1364 73.7999 21.7677ZM100.577 17.8535C100.502 19.5707 99.9968 21.2121 99.0378 22.7778C97.8769 24.697 96.514 25.6061 94.924 25.6061C94.1921 25.6061 93.6621 25.202 93.2583 24.4192C92.905 23.7374 92.7536 22.9545 92.7788 22.0707C92.8293 20.2525 93.3845 18.5354 94.3688 16.9192C95.555 14.9495 97.0188 13.9646 98.8611 13.9646C99.4164 13.9646 99.8707 14.3687 100.174 15.1768C100.451 15.9848 100.603 16.8939 100.577 17.8535ZM26.2517 3.93939C26.2769 3.00505 26.8321 2.12121 27.8669 1.28788C28.9269 0.454543 30.0878 0 31.375 0C32.1321 0 32.7378 0.277776 33.2426 0.858584C33.7473 1.43939 33.9745 2.04545 33.9492 2.65152C33.924 3.56061 33.4697 4.39394 32.6116 5.20202C31.6526 6.13636 30.5169 6.56566 29.2045 6.56566C27.1855 6.59091 26.2012 5.73232 26.2517 3.93939Z" fill="#AFB6C2"/>
</svg>
