<svg width="94" height="30" viewBox="0 0 94 30" fill="none" xmlns="http://www.w3.org/2000/svg">
<path d="M36.8667 25.0612V4.83667H40.5788V25.0612H36.8667ZM72.438 11.3061H75.9869V12.9795C76.7416 11.6326 78.4957 10.9183 80.005 10.9183C81.8815 10.9183 83.3908 11.7346 84.0843 13.204C85.1653 11.5305 86.6338 10.9183 88.4491 10.9183C90.9782 10.9183 93.4054 12.4489 93.4054 16.1428V25.0612H89.8156V16.8979C89.8156 15.4285 89.0814 14.3061 87.3885 14.3061C85.7976 14.3061 84.8593 15.5305 84.8593 17.0203V25.0612H81.188V16.8979C81.188 15.4285 80.4333 14.3061 78.7608 14.3061C77.1495 14.3061 76.1909 15.5101 76.1909 17.0203V25.0612H72.4787V11.3061H72.438ZM48.9617 25.4693C44.7805 25.4693 41.7618 22.3673 41.7618 18.204C41.7618 14.102 44.7805 10.9183 48.9617 10.9183C53.1838 10.9183 56.1617 14.1224 56.1617 18.204C56.1617 22.3265 53.143 25.4693 48.9617 25.4693ZM48.9617 14.2856C46.7997 14.2856 45.0456 16.0408 45.0456 18.204C45.0456 20.3673 46.7997 22.1224 48.9617 22.1224C51.1238 22.1224 52.8574 20.3673 52.8778 18.204C52.8574 16.0203 51.1238 14.2856 48.9617 14.2856ZM64.0958 25.4693C59.9146 25.4693 56.8959 22.3673 56.8959 18.204C56.8959 14.102 59.9146 10.9183 64.0958 10.9183C68.3179 10.9183 71.2958 14.1224 71.2958 18.204C71.2958 22.3265 68.2567 25.4693 64.0958 25.4693ZM64.0958 14.2244C61.9134 14.2244 60.1389 15.9999 60.1389 18.1836C60.1389 20.3673 61.9134 22.1428 64.0958 22.1428C66.2782 22.1428 68.0527 20.3673 68.0527 18.1836C68.0323 15.9999 66.2782 14.2244 64.0958 14.2244Z" fill="#AFB6C2"/>
<path d="M15.4913 19.2653C13.1253 19.2653 11.2285 17.3469 11.2285 15C11.2285 12.6531 13.1457 10.7347 15.4913 10.7347C17.8369 10.7347 19.7542 12.6531 19.7542 15C19.7542 17.3469 17.8573 19.2653 15.4913 19.2653ZM30.4826 13.4286H21.3451L29.2589 8.85714L27.6883 6.14286L19.7746 10.7143L24.3433 2.79592L21.6306 1.22449L17.0618 9.14286V0H13.9208V9.14286L9.35202 1.22449L6.6393 2.79592L11.2081 10.7143L3.2943 6.14286L1.72378 8.85714L9.63757 13.4286H0.5V16.5714H9.63757L1.72378 21.1429L3.2943 23.8571L11.2081 19.2857L6.6393 27.2041L9.35202 28.7755L13.9208 20.8571V30H17.0618V20.6735L21.7122 28.7347L24.2618 27.2653L19.6114 19.1837L27.6883 23.8571L29.2589 21.1429L21.3451 16.5714H30.4826V13.4286Z" fill="#AFB6C2"/>
</svg>
