<svg width="1001" height="1002" viewBox="0 0 1001 1002" fill="none" xmlns="http://www.w3.org/2000/svg">
<rect y="999.217" width="998.217" height="996.016" rx="50" transform="rotate(-90 0 999.217)" fill="#0A2FD6"/>
<path opacity="0.25" d="M249.004 1001L249.004 1.35654" stroke="#F8FAFB" stroke-linecap="round" stroke-dasharray="15 15"/>
<path opacity="0.25" d="M498.008 1001L498.008 1.35654" stroke="#F8FAFB" stroke-linecap="round" stroke-dasharray="15 15"/>
<path opacity="0.25" d="M747.012 1001V1.35654" stroke="#F8FAFB" stroke-linecap="round" stroke-dasharray="15 15"/>
<path opacity="0.25" d="M996.016 500.109L3.06368e-05 500.109" stroke="#F8FAFB" stroke-linecap="round" stroke-dasharray="15 15"/>
<path opacity="0.25" d="M996.016 393.157L3.06368e-05 393.157" stroke="#F8FAFB" stroke-linecap="round" stroke-dasharray="15 15"/>
<path opacity="0.25" d="M996.016 286.205L3.06368e-05 286.205" stroke="#F8FAFB" stroke-linecap="round" stroke-dasharray="15 15"/>
<path opacity="0.25" d="M996.016 179.253L3.06368e-05 179.253" stroke="#F8FAFB" stroke-linecap="round" stroke-dasharray="15 15"/>
<path opacity="0.25" d="M996.016 72.3013L3.06368e-05 72.3013" stroke="#F8FAFB" stroke-linecap="round" stroke-dasharray="15 15"/>
<path opacity="0.25" d="M996.016 607.061L3.06368e-05 607.061" stroke="#F8FAFB" stroke-linecap="round" stroke-dasharray="15 15"/>
<path opacity="0.25" d="M996.016 714.012L3.06368e-05 714.012" stroke="#F8FAFB" stroke-linecap="round" stroke-dasharray="15 15"/>
<path opacity="0.25" d="M996.016 820.964L3.06368e-05 820.964" stroke="#F8FAFB" stroke-linecap="round" stroke-dasharray="15 15"/>
<path opacity="0.25" d="M1000 927.916L3.98404 927.916" stroke="#F8FAFB" stroke-linecap="round" stroke-dasharray="15 15"/>
<ellipse cx="249.277" cy="393.014" rx="17.6303" ry="19.6645" transform="rotate(-90 249.277 393.014)" fill="#0A2FD6"/>
<path d="M231.487 385.492C233.547 381.584 237.161 378.464 241.615 376.773C241.709 377.03 241.992 377.164 242.25 377.072C244.425 376.306 246.795 375.884 249.277 375.884C251.759 375.884 254.129 376.306 256.304 377.072C256.562 377.164 256.846 377.03 256.94 376.773C261.393 378.464 265.008 381.584 267.067 385.492C266.824 385.616 266.724 385.912 266.844 386.158C267.872 388.258 268.442 390.577 268.442 393.014C268.442 395.452 267.872 397.771 266.844 399.871C266.724 400.117 266.824 400.413 267.067 400.537C265.008 404.445 261.393 407.565 256.94 409.256C256.846 408.999 256.562 408.865 256.304 408.957C254.129 409.723 251.759 410.145 249.277 410.145C246.795 410.145 244.425 409.723 242.25 408.957C241.992 408.865 241.709 408.999 241.615 409.256C237.161 407.565 233.547 404.445 231.487 400.537C231.73 400.413 231.83 400.117 231.71 399.871C230.682 397.771 230.113 395.452 230.113 393.014C230.113 390.577 230.682 388.258 231.71 386.158C231.83 385.912 231.73 385.616 231.487 385.492Z" stroke="white" stroke-opacity="0.25" stroke-linecap="round" stroke-dasharray="15 15"/>
<ellipse cx="747.253" cy="179.377" rx="17.6303" ry="19.6645" transform="rotate(-90 747.253 179.377)" fill="#0A2FD6"/>
<path d="M729.463 171.855C731.522 167.947 735.137 164.826 739.59 163.135C739.684 163.392 739.967 163.526 740.226 163.435C742.401 162.668 744.771 162.247 747.253 162.247C749.735 162.247 752.105 162.668 754.279 163.435C754.538 163.526 754.821 163.392 754.915 163.135C759.369 164.826 762.983 167.947 765.043 171.855C764.799 171.978 764.7 172.274 764.82 172.52C765.848 174.621 766.417 176.939 766.417 179.377C766.417 181.815 765.848 184.133 764.82 186.234C764.7 186.48 764.799 186.776 765.043 186.899C762.983 190.807 759.369 193.928 754.915 195.619C754.821 195.362 754.538 195.228 754.279 195.319C752.105 196.086 749.735 196.507 747.253 196.507C744.771 196.507 742.401 196.086 740.226 195.319C739.967 195.228 739.684 195.362 739.59 195.619C735.137 193.928 731.522 190.807 729.463 186.899C729.706 186.776 729.806 186.48 729.685 186.234C728.658 184.133 728.088 181.815 728.088 179.377C728.088 176.939 728.658 174.621 729.685 172.52C729.806 172.274 729.706 171.978 729.463 171.855Z" stroke="white" stroke-opacity="0.25" stroke-linecap="round" stroke-dasharray="15 15"/>
<ellipse cx="747.253" cy="714.508" rx="17.6303" ry="19.6645" transform="rotate(-90 747.253 714.508)" fill="#0A2FD6"/>
<path d="M729.463 706.986C731.522 703.078 735.137 699.957 739.59 698.266C739.684 698.523 739.967 698.657 740.226 698.566C742.401 697.799 744.771 697.378 747.253 697.378C749.735 697.378 752.105 697.799 754.279 698.566C754.538 698.657 754.821 698.523 754.915 698.266C759.369 699.957 762.983 703.078 765.043 706.986C764.799 707.109 764.7 707.405 764.82 707.651C765.848 709.751 766.417 712.07 766.417 714.508C766.417 716.946 765.848 719.264 764.82 721.365C764.7 721.61 764.799 721.907 765.043 722.03C762.983 725.938 759.369 729.059 754.915 730.75C754.821 730.493 754.538 730.359 754.279 730.45C752.105 731.217 749.735 731.638 747.253 731.638C744.771 731.638 742.401 731.217 740.226 730.45C739.967 730.359 739.684 730.493 739.59 730.75C735.137 729.059 731.522 725.938 729.463 722.03C729.706 721.907 729.806 721.61 729.685 721.365C728.658 719.264 728.088 716.946 728.088 714.508C728.088 712.07 728.658 709.751 729.685 707.651C729.806 707.405 729.706 707.109 729.463 706.986Z" stroke="white" stroke-opacity="0.25" stroke-linecap="round" stroke-dasharray="15 15"/>
<ellipse cx="249.277" cy="821.327" rx="17.6303" ry="19.6645" transform="rotate(-90 249.277 821.327)" fill="#0A2FD6"/>
<path d="M231.487 813.804C233.547 809.896 237.161 806.776 241.615 805.085C241.709 805.342 241.992 805.476 242.25 805.385C244.425 804.618 246.795 804.196 249.277 804.196C251.759 804.196 254.129 804.618 256.304 805.385C256.562 805.476 256.846 805.342 256.94 805.085C261.393 806.776 265.008 809.896 267.067 813.804C266.824 813.928 266.724 814.224 266.844 814.47C267.872 816.57 268.442 818.889 268.442 821.327C268.442 823.764 267.872 826.083 266.844 828.183C266.724 828.429 266.824 828.726 267.067 828.849C265.008 832.757 261.393 835.877 256.94 837.568C256.846 837.312 256.562 837.178 256.304 837.269C254.129 838.035 251.759 838.457 249.277 838.457C246.795 838.457 244.425 838.035 242.25 837.269C241.992 837.178 241.709 837.312 241.615 837.568C237.161 835.877 233.547 832.757 231.487 828.849C231.73 828.726 231.83 828.429 231.71 828.183C230.682 826.083 230.113 823.764 230.113 821.327C230.113 818.889 230.682 816.57 231.71 814.47C231.83 814.224 231.73 813.928 231.487 813.804Z" stroke="white" stroke-opacity="0.25" stroke-linecap="round" stroke-dasharray="15 15"/>
<ellipse cx="499.711" cy="500.87" rx="17.6303" ry="19.6645" transform="rotate(-90 499.711 500.87)" fill="#0A2FD6"/>
<path d="M481.921 493.348C483.98 489.44 487.595 486.32 492.049 484.629C492.142 484.885 492.426 485.019 492.684 484.928C494.859 484.162 497.229 483.74 499.711 483.74C502.193 483.74 504.563 484.162 506.738 484.928C506.996 485.019 507.279 484.885 507.373 484.629C511.827 486.32 515.441 489.44 517.501 493.348C517.258 493.472 517.158 493.768 517.278 494.014C518.306 496.114 518.875 498.433 518.875 500.87C518.875 503.308 518.306 505.627 517.278 507.727C517.158 507.973 517.258 508.269 517.501 508.393C515.441 512.301 511.827 515.421 507.373 517.112C507.279 516.855 506.996 516.721 506.738 516.812C504.563 517.579 502.193 518.001 499.711 518.001C497.229 518.001 494.859 517.579 492.684 516.812C492.426 516.721 492.142 516.855 492.049 517.112C487.595 515.421 483.98 512.301 481.921 508.393C482.164 508.269 482.264 507.973 482.144 507.727C481.116 505.627 480.546 503.308 480.546 500.87C480.546 498.433 481.116 496.114 482.144 494.014C482.264 493.768 482.164 493.472 481.921 493.348Z" stroke="white" stroke-opacity="0.25" stroke-linecap="round" stroke-dasharray="15 15"/>
</svg>
