<svg width="1728" height="966" viewBox="0 0 1728 966" fill="none" xmlns="http://www.w3.org/2000/svg">
<rect y="963.531" width="962.531" height="1728.09" rx="50" transform="rotate(-90 0 963.531)" fill="#0A2FD6"/>
<path opacity="0.25" d="M432.022 965.25L432.022 1.34375" stroke="#F8FAFB" stroke-linecap="round" stroke-dasharray="15 15"/>
<path opacity="0.25" d="M864.044 965.25L864.044 1.34375" stroke="#F8FAFB" stroke-linecap="round" stroke-dasharray="15 15"/>
<path opacity="0.25" d="M1296.07 965.25V1.34375" stroke="#F8FAFB" stroke-linecap="round" stroke-dasharray="15 15"/>
<path opacity="0.25" d="M1728.09 482.266L3.21865e-05 482.266" stroke="#F8FAFB" stroke-linecap="round" stroke-dasharray="15 15"/>
<path opacity="0.25" d="M1728.09 379.137L3.21865e-05 379.137" stroke="#F8FAFB" stroke-linecap="round" stroke-dasharray="15 15"/>
<path opacity="0.25" d="M1728.09 276.009L3.21865e-05 276.009" stroke="#F8FAFB" stroke-linecap="round" stroke-dasharray="15 15"/>
<path opacity="0.25" d="M1728.09 172.881L3.21865e-05 172.881" stroke="#F8FAFB" stroke-linecap="round" stroke-dasharray="15 15"/>
<path opacity="0.25" d="M1728.09 69.7523L3.21865e-05 69.7522" stroke="#F8FAFB" stroke-linecap="round" stroke-dasharray="15 15"/>
<path opacity="0.25" d="M1728.09 585.394L3.21865e-05 585.394" stroke="#F8FAFB" stroke-linecap="round" stroke-dasharray="15 15"/>
<path opacity="0.25" d="M1728.09 688.522L3.21865e-05 688.522" stroke="#F8FAFB" stroke-linecap="round" stroke-dasharray="15 15"/>
<path opacity="0.25" d="M1728.09 791.651L3.21865e-05 791.651" stroke="#F8FAFB" stroke-linecap="round" stroke-dasharray="15 15"/>
<path opacity="0.25" d="M1735 894.779L6.91239 894.779" stroke="#F8FAFB" stroke-linecap="round" stroke-dasharray="15 15"/>
<ellipse cx="432.496" cy="379" rx="17" ry="34.118" transform="rotate(-90 432.496 379)" fill="#0A2FD6"/>
<path d="M403.608 369.951C407.778 366.652 414.162 364.118 421.72 362.865C421.764 363.137 422.019 363.322 422.292 363.279C425.51 362.773 428.938 362.5 432.496 362.5C436.053 362.5 439.482 362.773 442.7 363.279C442.972 363.322 443.227 363.137 443.271 362.865C450.829 364.118 457.213 366.652 461.384 369.951C461.212 370.163 461.242 370.475 461.453 370.65C464.458 373.146 466.114 376.005 466.114 379C466.114 381.995 464.458 384.854 461.453 387.35C461.242 387.525 461.212 387.837 461.384 388.049C457.213 391.348 450.829 393.882 443.271 395.135C443.227 394.863 442.972 394.678 442.7 394.721C439.482 395.227 436.053 395.5 432.496 395.5C428.938 395.5 425.51 395.227 422.292 394.721C422.019 394.678 421.764 394.863 421.72 395.135C414.162 393.882 407.778 391.348 403.608 388.049C403.78 387.837 403.75 387.525 403.539 387.35C400.533 384.854 398.878 381.995 398.878 379C398.878 376.005 400.533 373.146 403.539 370.65C403.75 370.475 403.78 370.163 403.608 369.951Z" stroke="white" stroke-opacity="0.25" stroke-linecap="round" stroke-dasharray="15 15"/>
<ellipse cx="1296.48" cy="173" rx="17" ry="34.118" transform="rotate(-90 1296.48 173)" fill="#0A2FD6"/>
<path d="M1267.6 163.951C1271.77 160.652 1278.15 158.118 1285.71 156.865C1285.75 157.137 1286.01 157.322 1286.28 157.279C1289.5 156.773 1292.93 156.5 1296.48 156.5C1300.04 156.5 1303.47 156.773 1306.69 157.279C1306.96 157.322 1307.22 157.137 1307.26 156.865C1314.82 158.118 1321.2 160.652 1325.37 163.951C1325.2 164.163 1325.23 164.475 1325.44 164.65C1328.45 167.146 1330.1 170.005 1330.1 173C1330.1 175.995 1328.45 178.854 1325.44 181.35C1325.23 181.525 1325.2 181.837 1325.37 182.049C1321.2 185.348 1314.82 187.882 1307.26 189.135C1307.22 188.863 1306.96 188.678 1306.69 188.721C1303.47 189.227 1300.04 189.5 1296.48 189.5C1292.93 189.5 1289.5 189.227 1286.28 188.721C1286.01 188.678 1285.75 188.863 1285.71 189.135C1278.15 187.882 1271.77 185.348 1267.6 182.049C1267.77 181.837 1267.74 181.525 1267.53 181.35C1264.52 178.854 1262.87 175.995 1262.87 173C1262.87 170.005 1264.52 167.146 1267.53 164.65C1267.74 164.475 1267.77 164.163 1267.6 163.951Z" stroke="white" stroke-opacity="0.25" stroke-linecap="round" stroke-dasharray="15 15"/>
<ellipse cx="1296.48" cy="689" rx="17" ry="34.118" transform="rotate(-90 1296.48 689)" fill="#0A2FD6"/>
<path d="M1267.6 679.951C1271.77 676.652 1278.15 674.118 1285.71 672.865C1285.75 673.137 1286.01 673.322 1286.28 673.279C1289.5 672.773 1292.93 672.5 1296.48 672.5C1300.04 672.5 1303.47 672.773 1306.69 673.279C1306.96 673.322 1307.22 673.137 1307.26 672.865C1314.82 674.118 1321.2 676.652 1325.37 679.951C1325.2 680.163 1325.23 680.475 1325.44 680.65C1328.45 683.146 1330.1 686.005 1330.1 689C1330.1 691.995 1328.45 694.854 1325.44 697.35C1325.23 697.525 1325.2 697.837 1325.37 698.049C1321.2 701.348 1314.82 703.882 1307.26 705.135C1307.22 704.863 1306.96 704.678 1306.69 704.721C1303.47 705.227 1300.04 705.5 1296.48 705.5C1292.93 705.5 1289.5 705.227 1286.28 704.721C1286.01 704.678 1285.75 704.863 1285.71 705.135C1278.15 703.882 1271.77 701.348 1267.6 698.049C1267.77 697.837 1267.74 697.525 1267.53 697.35C1264.52 694.854 1262.87 691.995 1262.87 689C1262.87 686.005 1264.52 683.146 1267.53 680.65C1267.74 680.475 1267.77 680.163 1267.6 679.951Z" stroke="white" stroke-opacity="0.25" stroke-linecap="round" stroke-dasharray="15 15"/>
<ellipse cx="432.496" cy="792" rx="17" ry="34.118" transform="rotate(-90 432.496 792)" fill="#0A2FD6"/>
<path d="M403.608 782.951C407.778 779.652 414.162 777.118 421.72 775.865C421.764 776.137 422.019 776.322 422.292 776.279C425.51 775.773 428.938 775.5 432.496 775.5C436.053 775.5 439.482 775.773 442.7 776.279C442.972 776.322 443.227 776.137 443.271 775.865C450.829 777.118 457.213 779.652 461.384 782.951C461.212 783.163 461.242 783.475 461.453 783.65C464.458 786.146 466.114 789.005 466.114 792C466.114 794.995 464.458 797.854 461.453 800.35C461.242 800.525 461.212 800.837 461.384 801.049C457.213 804.348 450.829 806.882 443.271 808.135C443.227 807.863 442.972 807.678 442.7 807.721C439.482 808.227 436.053 808.5 432.496 808.5C428.938 808.5 425.51 808.227 422.292 807.721C422.019 807.678 421.764 807.863 421.72 808.135C414.162 806.882 407.778 804.348 403.608 801.049C403.78 800.837 403.75 800.525 403.539 800.35C400.533 797.854 398.878 794.995 398.878 792C398.878 789.005 400.533 786.146 403.539 783.65C403.75 783.475 403.78 783.163 403.608 782.951Z" stroke="white" stroke-opacity="0.25" stroke-linecap="round" stroke-dasharray="15 15"/>
<ellipse cx="866.998" cy="483" rx="17" ry="34.118" transform="rotate(-90 866.998 483)" fill="#0A2FD6"/>
<path d="M838.11 473.951C842.281 470.652 848.665 468.118 856.223 466.865C856.267 467.137 856.522 467.322 856.794 467.279C860.012 466.773 863.441 466.5 866.998 466.5C870.556 466.5 873.984 466.773 877.202 467.279C877.474 467.322 877.73 467.137 877.774 466.865C885.332 468.118 891.715 470.652 895.886 473.951C895.714 474.163 895.744 474.475 895.955 474.65C898.96 477.146 900.616 480.005 900.616 483C900.616 485.995 898.96 488.854 895.955 491.35C895.744 491.525 895.714 491.837 895.886 492.049C891.715 495.348 885.332 497.882 877.774 499.135C877.73 498.863 877.474 498.678 877.202 498.721C873.984 499.227 870.556 499.5 866.998 499.5C863.441 499.5 860.012 499.227 856.794 498.721C856.522 498.678 856.267 498.863 856.223 499.135C848.665 497.882 842.281 495.348 838.11 492.049C838.282 491.837 838.252 491.525 838.041 491.35C835.036 488.854 833.38 485.995 833.38 483C833.38 480.005 835.036 477.146 838.041 474.65C838.252 474.475 838.282 474.163 838.11 473.951Z" stroke="white" stroke-opacity="0.25" stroke-linecap="round" stroke-dasharray="15 15"/>
</svg>
