<svg width="178" height="150" viewBox="0 0 178 150" fill="none" xmlns="http://www.w3.org/2000/svg">
<path d="M74.2254 74C90.2324 74 103.209 60.7924 103.209 44.5C103.209 28.2076 90.2324 15 74.2254 15C58.2184 15 45.2422 28.2076 45.2422 44.5C45.2422 60.7924 58.2184 74 74.2254 74Z" fill="#FFD33A"/>
<path d="M74.2256 12C56.5631 12 42.2441 26.3273 42.2441 44C42.2441 61.6727 56.5631 76 74.2256 76C91.8881 76 106.207 61.6727 106.207 44C106.171 26.3273 91.8881 12.0364 74.2256 12ZM74.2256 70.1818C59.7613 70.1818 48.059 58.4727 48.059 44C48.059 29.5273 59.7613 17.8182 74.2256 17.8182C88.69 17.8182 100.392 29.5273 100.392 44C100.392 58.4364 88.6536 70.1818 74.2256 70.1818Z" fill="#FFB632"/>
<path d="M83.2201 50.3571C83.2201 54.0911 80.8214 57.3857 77.2235 58.6304V62.0714C77.2235 63.6821 75.8743 65 74.2253 65C72.5762 65 71.227 63.6821 71.227 62.0714V59.1429H68.2287C66.5797 59.1429 65.2305 57.825 65.2305 56.2143C65.2305 54.6036 66.5797 53.2857 68.2287 53.2857H74.2253C75.8743 53.2857 77.2235 51.9679 77.2235 50.3571C77.2235 48.7464 75.8743 47.4286 74.2253 47.4286C69.2406 47.4286 65.2305 43.475 65.2305 38.6429C65.2305 34.9089 67.6291 31.6143 71.227 30.3696V26.9286C71.227 25.3179 72.5762 24 74.2253 24C75.8743 24 77.2235 25.3179 77.2235 26.9286V29.8571H80.2218C81.8708 29.8571 83.2201 31.175 83.2201 32.7857C83.2201 34.3964 81.8708 35.7143 80.2218 35.7143H74.2253C72.5762 35.7143 71.227 37.0321 71.227 38.6429C71.227 40.2536 72.5762 41.5714 74.2253 41.5714C79.1724 41.5714 83.2201 45.525 83.2201 50.3571Z" fill="#0E1011"/>
<path d="M156.482 38.21H174.123V150H156.482V38.21Z" fill="#FDFDFD"/>
<path d="M127.081 61.7446H144.721V150H127.081V61.7446Z" fill="#FDFDFD"/>
<path d="M97.6792 82.3374H115.32V150H97.6792V82.3374Z" fill="#FDFDFD"/>
<path d="M68.2778 105.872H85.9187V150H68.2778V105.872Z" fill="#FDFDFD"/>
<path d="M38.8765 117.64H56.5173V150H38.8765V117.64Z" fill="#FDFDFD"/>
<path d="M9.4751 132.349H27.1159V150H9.4751V132.349Z" fill="#FDFDFD"/>
<path d="M177.165 2.89694V20.4818C177.165 22.0937 175.838 23.4126 174.216 23.4126C172.595 23.4126 171.268 22.0937 171.268 20.4818V9.96751L129.138 51.8781C128.585 52.4276 127.847 52.7207 127.037 52.7207H101.714L58.3678 95.8402C57.8149 96.3897 57.0777 96.6828 56.2668 96.6828H33.8932L5.29039 125.148C4.14775 126.284 2.26793 126.284 1.12529 125.148C-0.0173489 124.013 -0.0173489 122.144 1.12529 121.008L30.6127 91.7004C31.1656 91.1509 31.9028 90.8578 32.7137 90.8578H55.0873L98.4338 47.7383C98.9867 47.1888 99.7239 46.8957 100.535 46.8957H125.857L167.139 5.86438H156.524C154.902 5.86438 153.575 4.54552 153.575 2.93358C153.575 1.32163 154.902 0.002768 156.524 0.002768H174.216C175.801 -0.0705022 177.202 1.32163 177.165 2.89694Z" fill="#3DC285"/>
</svg>
