<svg width="497" height="496" viewBox="0 0 497 496" fill="none" xmlns="http://www.w3.org/2000/svg">
<path d="M376 120C369.28 120 362.88 121.36 357.12 123.84C348.4 93.92 320.8 72 288 72C282.72 72 277.6 72.56 272.72 73.68V73.6C257.44 35.2 219.92 8 176 8C126.8 8 85.68 42.24 74.88 88.16C73.92 88.08 72.96 88 72 88C36.64 88 8 116.64 8 152C8 187.36 36.64 216 72 216H376C378.72 216 381.44 215.76 384 215.28C406.72 211.52 424 191.76 424 168C424 141.52 402.48 120 376 120Z" fill="#0A2FD6"/>
<path d="M120 488V360H176H232V384V488H120Z" fill="#FFC729"/>
<path d="M304 408H464V440H304V408Z" fill="#84E482"/>
<path d="M304 328H464V360H304V328Z" fill="#84E482"/>
<path d="M304 440H464H472C480.8 440 488 447.2 488 456V472C488 480.8 480.8 488 472 488H296C287.2 488 280 480.8 280 472V456C280 447.2 287.2 440 296 440H304Z" fill="#38C936"/>
<path d="M304 360H464H472C480.8 360 488 367.2 488 376V392C488 400.8 480.8 408 472 408H464H304H296C287.2 408 280 400.8 280 392V384V376C280 367.2 287.2 360 296 360H304Z" fill="#38C936"/>
<path d="M488 296V312C488 320.8 480.8 328 472 328H464H304H296C287.2 328 280 320.8 280 312V296C280 287.2 287.2 280 296 280H384H472C480.8 280 488 287.2 488 296Z" fill="#38C936"/>
<path d="M272 196V204C272 208.64 270 212.96 266.8 216C265.04 217.68 262.96 218.96 260.56 219.76C256 221.28 252.24 224.72 250.48 229.2C250.08 230.16 249.68 231.12 249.28 232.08C248.4 234.08 248 236.24 248 238.4C248 240.96 248.56 243.52 249.76 245.84C253.04 252.24 251.76 260 246.72 265.04L241.04 270.72C237.84 273.92 233.6 275.6 229.36 275.6C226.8 275.6 224.24 274.96 221.84 273.76C217.52 271.6 212.48 271.36 208.08 273.28C207.12 273.68 206.16 274.08 205.2 274.48C200.72 276.24 197.28 280 195.76 284.56C193.52 291.36 187.12 296 180 296H176H172C164.88 296 158.48 291.36 156.24 284.56C154.72 280 151.28 276.24 146.8 274.48C145.84 274.08 144.88 273.68 143.92 273.28C141.92 272.4 139.76 272 137.6 272C135.04 272 132.48 272.56 130.16 273.76C123.76 277.04 116 275.76 110.96 270.72L105.28 265.04C102.08 261.84 100.4 257.6 100.4 253.36C100.4 250.8 101.04 248.24 102.24 245.84C104.4 241.52 104.64 236.48 102.72 232.08C102.32 231.12 101.92 230.16 101.52 229.2C99.76 224.72 96 221.28 91.44 219.76C89.04 218.96 86.96 217.68 85.2 216C82 212.96 80 208.64 80 204V196C80 188.88 84.64 182.48 91.44 180.24C96 178.72 99.76 175.28 101.52 170.8L102.72 167.92C103.6 165.92 104 163.76 104 161.6C104 159.04 103.44 156.48 102.24 154.16C98.96 147.76 100.24 140 105.28 134.96L110.96 129.28C114.16 126.08 118.4 124.4 122.64 124.4C125.2 124.4 127.76 125.04 130.16 126.24C134.48 128.4 139.52 128.64 143.92 126.72C144.88 126.32 145.84 125.92 146.8 125.52C151.28 123.76 154.72 120 156.24 115.44C158.48 108.64 164.88 104 172 104H180C187.12 104 193.52 108.64 195.76 115.44C197.28 120 200.72 123.76 205.2 125.52C206.16 125.92 207.12 126.32 208.08 126.72C210.08 127.6 212.24 128 214.4 128C216.96 128 219.52 127.44 221.84 126.24C228.24 122.96 236 124.24 241.04 129.28L246.72 134.96C249.92 138.16 251.6 142.4 251.6 146.64C251.6 149.2 250.96 151.76 249.76 154.16C247.6 158.48 247.36 163.52 249.28 167.92C249.68 168.88 250.08 169.84 250.48 170.8C252.24 175.28 256 178.72 260.56 180.24C267.36 182.48 272 188.88 272 196ZM224 200C224 173.52 202.48 152 176 152C149.52 152 128 173.52 128 200C128 226.48 149.52 248 176 248C202.48 248 224 226.48 224 200Z" fill="#FFC729"/>
<path d="M176 152C202.48 152 224 173.52 224 200C224 226.48 202.48 248 176 248C149.52 248 128 226.48 128 200C128 173.52 149.52 152 176 152ZM192 200C192 191.2 184.8 184 176 184C167.2 184 160 191.2 160 200C160 208.8 167.2 216 176 216C184.8 216 192 208.8 192 200Z" fill="#FCD770"/>
<path d="M232 200C232 169.12 206.88 144 176 144C145.12 144 120 169.12 120 200C120 230.88 145.12 256 176 256C206.88 256 232 230.88 232 200ZM136 200C136 177.944 153.944 160 176 160C198.056 160 216 177.944 216 200C216 222.056 198.056 240 176 240C153.944 240 136 222.056 136 200Z" fill="white"/>
<path d="M200 200C200 186.768 189.232 176 176 176C162.768 176 152 186.768 152 200C152 213.232 162.768 224 176 224C189.232 224 200 213.232 200 200ZM168 200C168 195.592 171.592 192 176 192C180.408 192 184 195.592 184 200C184 204.408 180.408 208 176 208C171.592 208 168 204.408 168 200Z" fill="white"/>
<path d="M144 384H208V400H144V384Z" fill="white"/>
<path d="M144 416H208V432H144V416Z" fill="white"/>
<path d="M144 448H208V464H144V448Z" fill="white"/>
<path d="M496 312V296C496 282.768 485.232 272 472 272H392V221.64C415.104 214.736 432 193.312 432 168C432 137.12 406.88 112 376 112C371.24 112 366.568 112.592 362.024 113.768C349.872 84.088 320.528 64 288 64C284.48 64 280.984 64.304 277.52 64.768C259.176 25.232 220.032 0 176 0C125.976 0 82.744 32.608 68.728 80.072C30.536 81.792 0 113.4 0 152C0 191.696 32.304 224 72 224H82.344C84.328 225.408 86.528 226.568 88.936 227.352C91.352 228.144 93.24 229.88 94.104 232.104C94.512 233.16 94.936 234.208 95.392 235.248C96.336 237.432 96.224 239.976 95.088 242.232C90.28 251.736 92.112 263.184 99.648 270.72L105.288 276.36C112.816 283.888 124.272 285.728 133.768 280.912C136.024 279.768 138.568 279.656 140.768 280.616C141.792 281.056 142.824 281.48 143.888 281.896C146.128 282.768 147.864 284.656 148.656 287.08C151.552 295.904 159.072 302.192 168.008 303.664V352H112.008V496H240.008V392H272.008C272.008 405.232 282.776 416 296.008 416V432C282.776 432 272.008 442.768 272.008 456V472C272.008 485.232 282.776 496 296.008 496H472.008C485.24 496 496.008 485.232 496.008 472V456C496.008 442.768 485.24 432 472.008 432V416C485.24 416 496.008 405.232 496.008 392V376C496.008 362.768 485.24 352 472.008 352V336C485.232 336 496 325.232 496 312ZM480 296V312C480 316.416 476.408 320 472 320H296C291.592 320 288 316.416 288 312V296C288 291.584 291.592 288 296 288H472C476.408 288 480 291.584 480 296ZM16 152C16 121.12 41.12 96 72 96C72.432 96 72.848 96.032 73.272 96.064L81.128 96.432L82.648 89.976C92.888 46.416 131.28 16 176 16C212.624 16 245.296 36.352 261.576 68.512C252.968 71.528 244.872 75.992 237.712 81.776L247.776 94.216C259.272 84.912 273.176 80 288 80C316.264 80 341.52 98.96 349.408 126.112L351.936 134.792L360.248 131.232C365.248 129.088 370.552 128 376 128C398.056 128 416 145.944 416 168C416 190.056 398.056 208 376 208H279.664C279.88 206.688 280 205.344 280 203.984V196.016C280 185.368 273.2 175.976 263.072 172.648C260.656 171.856 258.768 170.12 257.904 167.896C257.496 166.84 257.072 165.792 256.616 164.752C255.672 162.568 255.784 160.024 256.92 157.768C261.728 148.264 259.896 136.808 252.36 129.28L246.728 123.648C239.2 116.112 227.752 114.288 218.24 119.088C215.984 120.232 213.44 120.344 211.248 119.392C210.224 118.944 209.176 118.52 208.128 118.104C205.896 117.24 204.152 115.344 203.36 112.92C200.024 102.8 190.632 96 179.984 96H172.016C161.368 96 151.976 102.8 148.648 112.928C147.856 115.344 146.12 117.232 143.88 118.096C142.832 118.504 141.792 118.928 140.752 119.384C138.568 120.328 136.024 120.224 133.768 119.08C124.256 114.28 112.816 116.104 105.28 123.64L99.648 129.272C92.112 136.8 90.28 148.256 95.088 157.76C96.232 160.016 96.336 162.56 95.392 164.752C94.944 165.784 94.512 166.832 94.104 167.872C93.24 170.112 91.344 171.848 88.92 172.64C78.8 175.976 72 185.368 72 196.016V203.984C72 205.344 72.12 206.688 72.336 208H72C41.12 208 16 182.88 16 152ZM163.848 282.088C161.56 275.104 156.392 269.6 149.696 267C148.832 266.656 147.968 266.304 147.12 265.936C144.096 264.624 140.872 263.968 137.632 263.968C133.848 263.968 130.056 264.856 126.536 266.632C123.208 268.304 119.208 267.664 116.584 265.048L110.944 259.408C108.312 256.776 107.672 252.776 109.352 249.456C112.648 242.936 112.896 235.44 110.048 228.888C109.688 228.048 109.336 227.192 108.992 226.32C106.384 219.608 100.88 214.448 93.896 212.152C90.376 210.992 88 207.704 88 203.984V196.016C88 192.296 90.376 189.016 93.912 187.848C100.896 185.56 106.4 180.392 109.008 173.672C109.344 172.816 109.696 171.96 110.056 171.128C112.904 164.568 112.656 157.072 109.36 150.552C107.68 147.232 108.32 143.224 110.952 140.592L116.584 134.96C119.216 132.32 123.216 131.68 126.544 133.368C133.064 136.664 140.576 136.912 147.112 134.064C147.96 133.696 148.816 133.344 149.672 133.016C156.384 130.4 161.552 124.896 163.848 117.92C165.008 114.376 168.296 112 172.016 112H179.984C183.704 112 186.984 114.376 188.152 117.92C190.448 124.896 195.608 130.4 202.32 133.008C203.176 133.344 204.032 133.696 204.872 134.056C211.424 136.904 218.928 136.648 225.448 133.36C228.768 131.672 232.768 132.32 235.408 134.952L241.04 140.584C243.672 143.216 244.312 147.224 242.632 150.544C239.336 157.064 239.088 164.56 241.936 171.112C242.296 171.952 242.648 172.808 242.992 173.68C245.6 180.392 251.104 185.552 258.088 187.848C261.624 189.008 264 192.296 264 196.016V203.984C264 207.704 261.624 210.984 258.08 212.152C251.104 214.44 245.6 219.608 242.992 226.328C242.656 227.184 242.304 228.04 241.944 228.872C239.096 235.432 239.344 242.928 242.64 249.448C244.32 252.768 243.68 256.768 241.04 259.4L235.408 265.04C232.776 267.656 228.784 268.296 225.448 266.624C218.928 263.336 211.44 263.088 204.88 265.92C204.032 266.296 203.168 266.648 202.312 266.984C195.6 269.592 190.44 275.104 188.144 282.08C186.992 285.624 183.704 288 179.984 288H172.016C168.296 288 165.008 285.616 163.848 282.088ZM224 480H128V368H224V480ZM240 376V352H184V303.664C192.936 302.192 200.456 295.896 203.352 287.072C204.144 284.656 205.88 282.776 208.136 281.896C209.184 281.488 210.216 281.064 211.248 280.616C213.432 279.672 215.976 279.784 218.232 280.92C227.744 285.736 239.192 283.888 246.72 276.368L252.352 270.728C259.888 263.2 261.72 251.744 256.912 242.24C255.768 239.984 255.664 237.44 256.608 235.248C257.056 234.216 257.488 233.168 257.896 232.128C258.76 229.888 260.656 228.152 263.08 227.36C265.48 226.568 267.68 225.416 269.656 224.008H376V272.008H296C282.768 272.008 272 282.776 272 296.008V312.008C272 325.24 282.768 336.008 296 336.008V352.008C282.768 352.008 272 362.776 272 376.008L240 376ZM480 456V472C480 476.416 476.408 480 472 480H296C291.592 480 288 476.416 288 472V456C288 451.584 291.592 448 296 448H472C476.408 448 480 451.584 480 456ZM456 432H312V416H456V432ZM480 376V392C480 396.416 476.408 400 472 400H296C291.592 400 288 396.416 288 392V376C288 371.584 291.592 368 296 368H472C476.408 368 480 371.584 480 376ZM456 352H312V336H456V352Z" fill="white"/>
<path d="M216 48H232V64H216V48Z" fill="white"/>
<path d="M184 48H200V64H184V48Z" fill="white"/>
<path d="M120 48H136V64H120V48Z" fill="white"/>
<path d="M152 48H168V64H152V48Z" fill="white"/>
</svg>
