<svg width="100" height="100" viewBox="0 0 100 100" fill="none" xmlns="http://www.w3.org/2000/svg">
<rect width="100" height="100" rx="20.8333" fill="white"/>
<path d="M70.4277 37.8907H74.8197V28.0624C74.8197 27.4697 74.4635 26.9355 73.9159 26.7089C73.3694 26.4824 72.7389 26.6074 72.3202 27.0263L26.874 72.499C26.4553 72.918 26.3303 73.5488 26.5568 74.0957C26.7832 74.6436 27.3171 75 27.9095 75H37.7319V71.0938C37.7319 70.2852 38.3878 69.6289 39.1959 69.6289C40.0041 69.6289 40.6599 70.2852 40.6599 71.0938V75H44.5639V71.0938C44.5639 70.2852 45.2198 69.6289 46.0279 69.6289C46.836 69.6289 47.4919 70.2852 47.4919 71.0938V75H51.3959V71.0938C51.3959 70.2852 52.0518 69.6289 52.8599 69.6289C53.668 69.6289 54.3239 70.2852 54.3239 71.0938V75H58.2279V71.0938C58.2279 70.2852 58.8837 69.6289 59.6919 69.6289C60.5 69.6289 61.1559 70.2852 61.1559 71.0938V75H65.0598V71.0938C65.0598 70.2852 65.7157 69.6289 66.5238 69.6289C67.332 69.6289 67.9878 70.2852 67.9878 71.0938V75H73.3558C74.164 75 74.8198 74.3438 74.8198 73.5352V68.1641H70.9158C70.1077 68.1641 69.4518 67.5078 69.4518 66.6992C69.4518 65.8906 70.1077 65.2344 70.9158 65.2344H74.8198V61.3281H70.9158C70.1077 61.3281 69.4518 60.6719 69.4518 59.8633C69.4518 59.0547 70.1077 58.3985 70.9158 58.3985H74.8198V54.4922H70.9158C70.1077 54.4922 69.4518 53.836 69.4518 53.0274C69.4518 52.2188 70.1077 51.5625 70.9158 51.5625H74.8198V47.6563H70.9158C70.1077 47.6563 69.4518 47 69.4518 46.1914C69.4518 45.3828 70.1077 44.7266 70.9158 44.7266H74.8198V40.8203H70.4278C69.6197 40.8203 68.9638 40.1641 68.9638 39.3555C68.9638 38.5469 69.6196 37.8907 70.4277 37.8907ZM66.0357 64.7461C66.0357 65.5547 65.3799 66.211 64.5718 66.211H49.1159C48.5234 66.211 47.9896 65.8545 47.7631 65.3067C47.5367 64.7598 47.6616 64.1289 48.0803 63.71L63.5362 48.2451C63.9549 47.8262 64.5854 47.7012 65.132 47.9278C65.6795 48.1543 66.0357 48.6885 66.0357 49.2813V64.7461Z" fill="#0A2FD6"/>
<path d="M29.3666 53.3613L35.5779 59.5762L31.4885 63.667C30.9156 64.2402 29.9884 64.2373 29.4184 63.667L25.2772 59.5234C24.7033 58.9492 24.7082 58.0215 25.2772 57.4521L29.3666 53.3613Z" fill="#0A2FD6"/>
<path d="M58.8658 35.8711C59.0025 35.8711 59.1411 35.8672 59.2806 35.8594L37.6478 57.5049L31.4365 51.29L52.7844 29.9297C52.8166 31.5889 53.4081 33.0576 54.5012 34.1523C55.6275 35.2782 57.1481 35.8711 58.8658 35.8711Z" fill="#0A2FD6"/>
<path d="M63.7814 27.0927L61.279 32.37C59.49 33.1864 57.6346 33.1435 56.5717 32.08C55.6084 31.1161 55.4835 29.4999 56.0769 27.872L61.8304 25.1415C62.3896 24.8759 63.0562 24.9911 63.4935 25.4286C63.9307 25.8671 64.0459 26.5331 63.7814 27.0927Z" fill="#0A2FD6"/>
</svg>
