<svg width="100" height="100" viewBox="0 0 100 100" fill="none" xmlns="http://www.w3.org/2000/svg">
<rect width="100" height="100" rx="20.8333" fill="white"/>
<path d="M25 41C25 37.6863 27.6863 35 31 35H40.4024C42.9929 35 45.143 37.002 45.3276 39.5859L45.3452 39.8328C45.4429 41.1999 46.1674 42.4449 47.3078 43.2052L47.9517 43.6345C49.172 44.448 49.7266 45.9569 49.3237 47.367V47.367C49.1141 48.1006 48.662 48.7414 48.0412 49.1849L45.5 51V51C45.5 53.0664 46.8831 54.8772 48.8767 55.4209L49.9873 55.7238C50.6537 55.9056 51.2701 56.2364 51.79 56.6912V56.6912C53.5963 58.2718 56.3188 58.1812 58.0161 56.4839L58.3609 56.1391C59.0903 55.4097 60.0795 55 61.1109 55V55C63.2588 55 65 56.7412 65 58.8891V69C65 72.3137 62.3137 75 59 75H31C27.6863 75 25 72.3137 25 69V41Z" fill="#0A2FD6"/>
<path d="M63.4894 53.125C63.4894 53.125 56.832 53.125 56.8221 53.125C55.6521 53.125 54.885 54.468 55.474 55.4779C55.6082 55.7053 55.6814 55.9799 55.6814 56.25C55.6814 57.1121 54.9814 57.8125 54.1198 57.8125C53.2582 57.8125 52.5582 57.1121 52.5582 56.25C52.5582 55.9799 52.6314 55.7053 52.7656 55.4779C53.3651 54.4621 52.5827 53.125 51.4175 53.125H46.3118V50C48.8952 50 50.9966 47.8973 50.9966 45.3125C50.9966 42.7277 48.8952 40.625 46.3118 40.625V35.9375C46.3118 35.0739 45.6126 34.375 44.7502 34.375H29.1343C26.5509 34.375 24.4495 36.4777 24.4495 39.0625V70.3125C24.4495 72.8973 26.5509 75 29.1343 75H60.3662C62.9495 75 65.051 72.8973 65.051 70.3125V54.6875C65.051 53.8239 64.3525 53.125 63.4894 53.125ZM27.5727 39.0625C27.5727 38.2004 28.2734 37.5 29.1343 37.5H43.1886V42.6086C43.1886 43.7856 44.524 44.5491 45.5394 43.9575C45.7674 43.8232 46.0411 43.75 46.3118 43.75C47.1727 43.75 47.8734 44.4504 47.8734 45.3125C47.8734 46.1746 47.1727 46.875 46.3118 46.875C46.0411 46.875 45.7674 46.8018 45.5394 46.6675C44.5201 46.0671 43.1886 46.843 43.1886 48.0164V53.125H40.0654C40.0654 50.5402 37.964 48.4375 35.3806 48.4375C32.7973 48.4375 30.6958 50.5402 30.6958 53.125H27.5727V39.0625ZM43.1886 71.875H29.1343C28.2734 71.875 27.5727 71.1746 27.5727 70.3125V56.25H32.6791C33.8462 56.25 34.6154 54.9041 34.0264 53.8971C33.893 53.6697 33.819 53.3951 33.819 53.125C33.819 52.2629 34.5198 51.5625 35.3806 51.5625C36.2415 51.5625 36.9422 52.2629 36.9422 53.125C36.9422 53.3951 36.8683 53.6696 36.7348 53.897C36.1427 54.906 36.9196 56.25 38.0822 56.25H43.1886V59.375C40.6053 59.375 38.5038 61.4777 38.5038 64.0625C38.5038 66.6473 40.6053 68.75 43.1886 68.75V71.875ZM61.9278 70.3125C61.9278 71.1746 61.2278 71.875 60.3662 71.875H46.3118C46.3118 71.875 46.3118 66.7707 46.3118 66.7664C46.3118 65.5823 44.9836 64.8216 43.961 65.4175C43.733 65.5518 43.4593 65.625 43.1886 65.625C42.3278 65.625 41.627 64.9246 41.627 64.0625C41.627 63.2004 42.3278 62.5 43.1886 62.5C43.4593 62.5 43.733 62.5733 43.961 62.7075C44.9814 63.3084 46.3118 62.5391 46.3118 61.3586V56.25H49.435C49.435 58.8348 51.5364 60.9375 54.1198 60.9375C56.7031 60.9375 58.8046 58.8348 58.8046 56.25H61.9278V70.3125Z" fill="white"/>
<path d="M56 27H74V38V43.5V46H68.5L65 49H61.5L56 44.5V40L58.5 36L56 32V27Z" fill="#0A2FD6"/>
<path d="M69.7358 25H54.1198C53.2567 25 52.5582 25.6989 52.5582 26.5625V33.2336C52.5583 34.2349 53.6356 34.9906 54.5792 34.7118C54.9618 34.5987 55.2636 34.375 55.6814 34.375C56.543 34.375 57.243 35.0754 57.243 35.9375C57.243 36.7996 56.543 37.5 55.6814 37.5C55.4115 37.5 55.137 37.4267 54.9098 37.2925C53.911 36.7114 52.5552 37.4951 52.5552 38.6475V45.3186C52.5552 46.1823 53.2536 46.8811 54.147 46.875H58.8046C58.8046 49.4598 60.906 51.5625 63.4894 51.5625C66.0727 51.5625 68.1742 49.4598 68.1742 46.875H72.859C73.7221 46.875 74.4206 46.1761 74.4206 45.3125V29.6875C74.4206 27.1027 72.3191 25 69.7358 25ZM71.2974 43.75H66.1917C65.3369 43.75 64.5624 44.5929 64.6563 45.4554C64.7102 45.9504 65.051 46.3718 65.051 46.875C65.051 47.7371 64.351 48.4375 63.4894 48.4375C62.6278 48.4375 61.9278 47.7371 61.9278 46.875C61.9278 46.4496 62.1552 46.0876 62.2694 45.6905C62.5355 44.7647 61.7529 43.75 60.7871 43.75H55.6784L55.6814 40.625C58.2648 40.625 60.3662 38.5223 60.3662 35.9375C60.3662 33.3527 58.2648 31.25 55.6814 31.25V28.125H69.7358C70.5974 28.125 71.2974 28.8254 71.2974 29.6875V43.75Z" fill="white"/>
</svg>
