<svg width="100" height="100" viewBox="0 0 100 100" fill="none" xmlns="http://www.w3.org/2000/svg">
<rect width="100" height="100" rx="20.8333" fill="white"/>
<path d="M75.0157 36.7647V29.4118C75.0157 26.9791 73.0377 25 70.6065 25H29.2578C26.8266 25 24.8486 26.9791 24.8486 29.4118V36.7647H75.0157ZM58.7506 30.8824H67.569C68.3807 30.8824 69.0387 31.5408 69.0387 32.3529C69.0387 33.1651 68.3807 33.8235 67.569 33.8235H58.7506C57.9389 33.8235 57.2808 33.1651 57.2808 32.3529C57.2808 31.5408 57.9389 30.8824 58.7506 30.8824ZM44.0532 30.8824C44.8649 30.8824 45.5229 31.5408 45.5229 32.3529C45.5229 33.1651 44.8649 33.8235 44.0532 33.8235C43.2415 33.8235 42.5835 33.1651 42.5835 32.3529C42.5835 31.5408 43.2415 30.8824 44.0532 30.8824ZM38.1743 30.8824C38.9859 30.8824 39.644 31.5408 39.644 32.3529C39.644 33.1651 38.9859 33.8235 38.1743 33.8235C37.3626 33.8235 36.7045 33.1651 36.7045 32.3529C36.7045 31.5408 37.3626 30.8824 38.1743 30.8824ZM32.2953 30.8824C33.107 30.8824 33.765 31.5408 33.765 32.3529C33.765 33.1651 33.107 33.8235 32.2953 33.8235C31.4836 33.8235 30.8256 33.1651 30.8256 32.3529C30.8256 31.5408 31.4836 30.8824 32.2953 30.8824Z" fill="#0A2FD6"/>
<path d="M24.8486 39.7061V70.5884C24.8486 73.0211 26.8266 75.0002 29.2578 75.0002H70.6065C73.0377 75.0002 75.0157 73.0211 75.0157 70.5884V39.7061H24.8486ZM42.0318 60.6165C42.6658 61.1239 42.7685 62.0493 42.2614 62.6835C41.7544 63.3176 40.8294 63.4206 40.1956 62.9131L32.8469 57.0308C32.1122 56.4428 32.1117 55.3225 32.8469 54.7341L40.1956 48.8517C40.8292 48.3444 41.7542 48.4471 42.2614 49.0813C42.7685 49.7156 42.6658 50.6411 42.0318 51.1483L36.1178 55.8825L42.0318 60.6165ZM55.6923 46.1677L46.8738 66.756C46.5541 67.5023 45.6903 67.8484 44.944 67.5283C44.1979 67.2084 43.8522 66.3438 44.1721 65.5973L52.9905 45.0091C53.3103 44.2626 54.1743 43.9168 54.9203 44.2367C55.6664 44.5566 56.0121 45.4212 55.6923 46.1677ZM67.0174 57.0309L59.6687 62.9132C59.0359 63.4199 58.1108 63.3187 57.6029 62.6836C57.0959 62.0494 57.1985 61.1239 57.8325 60.6166L63.7465 55.8825L57.8325 51.1485C57.1985 50.6412 57.0959 49.7158 57.6029 49.0815C58.1099 48.4473 59.0348 48.3445 59.6687 48.8519L67.0174 54.7343C67.7521 55.3222 67.7526 56.4424 67.0174 57.0309Z" fill="#0A2FD6"/>
</svg>
