<svg width="100" height="100" viewBox="0 0 100 100" fill="none" xmlns="http://www.w3.org/2000/svg">
<rect width="100" height="100" rx="20.8333" fill="white"/>
<path d="M68.7501 67.1875H47.9167C47.0626 67.1875 46.3542 66.4792 46.3542 65.625C46.3542 64.7708 47.0626 64.0625 47.9167 64.0625H68.7501C69.6042 64.0625 70.3126 64.7708 70.3126 65.625C70.3126 66.4792 69.6042 67.1875 68.7501 67.1875Z" fill="#0A2FD6" stroke="#0A2FD6" stroke-width="2"/>
<path d="M68.7501 52.6042H47.9167C47.0626 52.6042 46.3542 51.8959 46.3542 51.0417C46.3542 50.1875 47.0626 49.4792 47.9167 49.4792H68.7501C69.6042 49.4792 70.3126 50.1875 70.3126 51.0417C70.3126 51.8959 69.6042 52.6042 68.7501 52.6042Z" fill="#0A2FD6" stroke="#0A2FD6" stroke-width="2"/>
<path d="M68.7501 38.0208H47.9167C47.0626 38.0208 46.3542 37.3125 46.3542 36.4583C46.3542 35.6041 47.0626 34.8958 47.9167 34.8958H68.7501C69.6042 34.8958 70.3126 35.6041 70.3126 36.4583C70.3126 37.3125 69.6042 38.0208 68.7501 38.0208Z" fill="#0A2FD6" stroke="#0A2FD6" stroke-width="2"/>
<path d="M33.3342 40.104C32.9384 40.104 32.5426 39.9582 32.2301 39.6457L30.1467 37.5624C29.5426 36.9582 29.5426 35.9582 30.1467 35.354C30.7509 34.7499 31.7509 34.7499 32.3551 35.354L33.3342 36.3332L38.4801 31.1874C39.0842 30.5832 40.0842 30.5832 40.6884 31.1874C41.2926 31.7915 41.2926 32.7915 40.6884 33.3957L34.4384 39.6457C34.1259 39.9582 33.7301 40.104 33.3342 40.104Z" fill="#0A2FD6" stroke="#0A2FD6" stroke-width="2"/>
<path d="M33.3342 54.6873C32.9384 54.6873 32.5426 54.5414 32.2301 54.2289L30.1467 52.1456C29.5426 51.5414 29.5426 50.5414 30.1467 49.9373C30.7509 49.3331 31.7509 49.3331 32.3551 49.9373L33.3342 50.9164L38.4801 45.7707C39.0842 45.1665 40.0842 45.1665 40.6884 45.7707C41.2926 46.3748 41.2926 47.3748 40.6884 47.9789L34.4384 54.2289C34.1259 54.5414 33.7301 54.6873 33.3342 54.6873Z" fill="#0A2FD6" stroke="#0A2FD6" stroke-width="2"/>
<path d="M33.3342 69.2706C32.9384 69.2706 32.5426 69.1248 32.2301 68.8123L30.1467 66.7289C29.5426 66.1248 29.5426 65.1248 30.1467 64.5206C30.7509 63.9164 31.7509 63.9164 32.3551 64.5206L33.3342 65.4998L38.4801 60.3539C39.0842 59.7498 40.0842 59.7498 40.6884 60.3539C41.2926 60.9581 41.2926 61.9581 40.6884 62.5623L34.4384 68.8123C34.1259 69.1248 33.7301 69.2706 33.3342 69.2706Z" fill="#0A2FD6" stroke="#0A2FD6" stroke-width="2"/>
</svg>
