<svg width="53" height="47" viewBox="0 0 53 47" fill="none" xmlns="http://www.w3.org/2000/svg">
<path d="M49.6082 46.5776C49.376 46.5782 49.145 46.545 48.9223 46.4792C39.6195 43.7428 31.0198 39.0219 23.7151 32.6415C16.4104 26.2611 10.5742 18.3728 6.60815 9.51941C6.34782 8.93266 6.33032 8.26663 6.55948 7.66701C6.78864 7.06738 7.24581 6.58297 7.83098 6.31972C8.41616 6.05648 9.08172 6.03583 9.68207 6.2623C10.2824 6.48876 10.7687 6.94391 11.0345 7.52818C14.7122 15.7429 20.1254 23.0625 26.9014 28.9831C33.6775 34.9037 41.6554 39.2846 50.2859 41.8242C50.8445 41.9896 51.3248 42.3507 51.6392 42.8414C51.9535 43.332 52.0809 43.9195 51.998 44.4964C51.9151 45.0733 51.6274 45.6011 51.1876 45.9832C50.7478 46.3654 50.1852 46.5764 49.6027 46.5776H49.6082Z" fill="white"/>
<path d="M8.82572 16.7315C13.3576 16.7315 17.0313 13.0556 17.0313 8.52114C17.0313 3.98669 13.3576 0.310791 8.82572 0.310791C4.29389 0.310791 0.620117 3.98669 0.620117 8.52114C0.620117 13.0556 4.29389 16.7315 8.82572 16.7315Z" fill="white"/>
</svg>
