<svg width="53" height="47" viewBox="0 0 53 47" fill="none" xmlns="http://www.w3.org/2000/svg">
<path d="M43.9828 40.9027C43.5147 40.9034 43.0563 40.7688 42.6629 40.5149C42.2695 40.261 41.9578 39.8987 41.7654 39.4717C38.0879 31.2574 32.675 23.9381 25.8995 18.0176C19.124 12.097 11.1467 7.71587 2.51683 5.17565C2.20732 5.08914 1.91809 4.94194 1.66592 4.7426C1.41376 4.54327 1.2037 4.29578 1.04796 4.01452C0.892224 3.73325 0.793913 3.42383 0.758725 3.10421C0.723537 2.7846 0.752177 2.46118 0.842993 2.15274C0.933809 1.8443 1.08498 1.55699 1.28773 1.30752C1.49048 1.05804 1.74076 0.851374 2.02403 0.69952C2.30729 0.547667 2.6179 0.453657 2.93779 0.422953C3.25769 0.39225 3.58048 0.425465 3.88743 0.520669C13.1891 3.25753 21.7877 7.97864 29.0912 14.359C36.3947 20.7394 42.2297 28.6275 46.1946 37.4804C46.3615 37.8498 46.4331 38.2552 46.4029 38.6595C46.3727 39.0638 46.2417 39.454 46.0217 39.7945C45.8018 40.1349 45.5001 40.4148 45.1441 40.6084C44.7882 40.802 44.388 40.9032 43.9828 40.9027Z" fill="#F7CE47"/>
<path d="M43.9776 46.6893C48.5094 46.6893 52.1832 43.0134 52.1832 38.4789C52.1832 33.9445 48.5094 30.2686 43.9776 30.2686C39.4457 30.2686 35.772 33.9445 35.772 38.4789C35.772 43.0134 39.4457 46.6893 43.9776 46.6893Z" fill="#F7CE47"/>
</svg>
