<svg width="90" height="89" viewBox="0 0 90 89" fill="none" xmlns="http://www.w3.org/2000/svg">
<path d="M89.642 52.493V36.2526H79.1525C78.3039 32.6893 76.8905 29.2849 74.9659 26.1689L82.3913 18.7392L70.9137 7.25495L63.4883 14.6888C60.374 12.7631 56.9717 11.3488 53.4104 10.4997V0H37.1794V10.5094C33.6217 11.3607 30.2215 12.7713 27.1056 14.6888L19.6761 7.25495L8.19851 18.7392L15.628 26.173C13.7117 29.2907 12.3019 32.6928 11.4511 36.2526H0.947754V52.493H11.4359C12.2874 56.0567 13.7026 59.4614 15.628 62.5781L8.20405 70.0064L19.6816 81.492L27.1056 74.0624C30.2207 75.9875 33.6234 77.4017 37.1849 78.2514V88.7456H53.4104V78.2362C56.9681 77.3849 60.3683 75.9743 63.4841 74.0568L70.9137 81.492L82.3913 70.0064L74.9617 62.5726C76.8781 59.4549 78.2879 56.0528 79.1387 52.493H89.642ZM45.2949 62.9525C41.622 62.9525 38.0316 61.8628 34.9777 59.821C31.9239 57.7793 29.5437 54.8773 28.1381 51.4821C26.7326 48.0868 26.3648 44.3508 27.0813 40.7464C27.7979 37.142 29.5665 33.8312 32.1637 31.2326C34.7608 28.634 38.0697 26.8643 41.672 26.1473C45.2743 25.4304 49.0082 25.7983 52.4015 27.2047C55.7947 28.6111 58.695 30.9927 60.7356 34.0483C62.7761 37.1039 63.8653 40.6964 63.8653 44.3714C63.8653 49.2994 61.9087 54.0256 58.4261 57.5102C54.9435 60.9949 50.2201 62.9525 45.2949 62.9525Z" fill="#F7CE47"/>
</svg>
