<svg width="89" height="89" viewBox="0 0 89 89" fill="none" xmlns="http://www.w3.org/2000/svg">
<path d="M88.8554 52.7474V36.507H78.3659C77.5173 32.9432 76.1039 29.5384 74.1793 26.4219L81.6046 18.9922L70.1271 7.50796L62.7017 14.9376C59.5871 13.0125 56.1848 11.5983 52.6238 10.7486V0.254395H36.3927V10.7638C32.8351 11.6151 29.4349 13.0257 26.319 14.9432L18.8895 7.50796L7.41189 18.9922L14.8414 26.4274C12.9251 29.5451 11.5153 32.9472 10.6645 36.507H0.161133V52.7474H10.6492C11.4991 56.3103 12.9125 59.7144 14.8359 62.8311L7.41189 70.2608L18.8895 81.745L26.3135 74.3154C29.4282 76.2411 32.8311 77.6553 36.3927 78.5044V89H52.6238V78.4906C56.1815 77.6393 59.5817 76.2286 62.6975 74.3112L70.1271 81.745L81.6046 70.2608L74.1751 62.827C76.0914 59.7093 77.5013 56.3072 78.3521 52.7474H88.8554ZM44.5083 63.2055C40.8354 63.2055 37.245 62.1158 34.1911 60.0741C31.1372 58.0323 28.757 55.1304 27.3515 51.7351C25.9459 48.3398 25.5782 44.6038 26.2947 40.9994C27.0113 37.395 28.7799 34.0842 31.377 31.4856C33.9741 28.887 37.2831 27.1173 40.8854 26.4003C44.4877 25.6834 48.2215 26.0513 51.6148 27.4577C55.0081 28.8641 57.9084 31.2457 59.949 34.3013C61.9895 37.357 63.0786 40.9494 63.0786 44.6244C63.0786 49.5524 61.1221 54.2786 57.6395 57.7632C54.1569 61.2479 49.4334 63.2055 44.5083 63.2055Z" fill="white"/>
</svg>
