<svg width="91" height="20" viewBox="0 0 91 20" fill="none" xmlns="http://www.w3.org/2000/svg">
<path fill-rule="evenodd" clip-rule="evenodd" d="M13.4033 0V20H6.70167L6.70164 6.66656L0 6.66667V0H13.4033ZM23.6262 0L23.6262 13.3334L30.3279 13.3333V20H16.9245V0H23.6262Z" fill="white"/>
<path d="M39.129 6.47844V1.57388H41.0039V0.242641H35.5737V1.57388H37.4486V6.47844H39.129ZM46.6286 6.47844V4.05243H47.23C47.5779 4.05243 47.799 4.16921 47.8933 4.40276L48.7069 6.47844H50.4669L49.724 4.62171C49.6414 4.40568 49.5294 4.23343 49.3879 4.10498C49.2464 3.97653 49.0872 3.89479 48.9103 3.85975C49.3231 3.7313 49.6429 3.51381 49.8699 3.20727C50.0969 2.90074 50.2104 2.53727 50.2104 2.11688C50.2104 1.51549 50.0188 1.05277 49.6355 0.728719C49.2523 0.404668 48.6804 0.242641 47.9198 0.242641H44.9925V6.47844H46.6286ZM47.6545 2.82629H46.6109V1.4863H47.6545C48.0142 1.4863 48.2721 1.53885 48.4283 1.64394C48.5846 1.74904 48.6627 1.92128 48.6627 2.16067C48.6627 2.38839 48.5831 2.55625 48.4239 2.66427C48.2647 2.77229 48.0083 2.82629 47.6545 2.82629ZM55.4195 6.47844L55.9766 5.19099H58.7713L59.3285 6.47844H60.9646L58.0107 0.242641H56.7018L53.7568 6.47844H55.4195ZM58.2318 3.95609H56.5161L57.374 1.98551L58.2318 3.95609ZM67.4118 6.47844L70.2772 0.242641H68.6057L66.7662 4.42903L64.9532 0.242641H63.2286L66.0941 6.47844H67.4118ZM75.6189 6.47844V0.242641H73.9563V6.47844H75.6189ZM82.3492 6.55726C83.2159 6.55726 83.888 6.38356 84.3656 6.03615C84.8431 5.68874 85.0819 5.21143 85.0819 4.6042C85.0819 4.28306 85.0141 4.00718 84.8785 3.77655C84.7429 3.54592 84.5115 3.34448 84.1843 3.17224C83.857 3 83.4075 2.85257 82.8356 2.72995C82.4818 2.65405 82.2165 2.58253 82.0396 2.51538C81.8627 2.44823 81.7419 2.37963 81.677 2.30956C81.6122 2.2395 81.5797 2.15192 81.5797 2.04682C81.5797 1.85414 81.6711 1.70087 81.8539 1.58702C82.0367 1.47316 82.2784 1.41623 82.5791 1.41623C82.8857 1.41623 83.1923 1.46732 83.4989 1.5695C83.8055 1.67168 84.0973 1.81911 84.3744 2.01179L84.8874 0.846953C84.6456 0.642597 84.311 0.477652 83.8836 0.352118C83.4561 0.226585 83.0154 0.163818 82.5614 0.163818C82.0544 0.163818 81.6033 0.24994 81.2083 0.422183C80.8133 0.594427 80.5067 0.833816 80.2885 1.14035C80.0704 1.44689 79.9613 1.78991 79.9613 2.16943C79.9613 2.50224 80.0276 2.78542 80.1603 3.01897C80.293 3.25252 80.5244 3.45542 80.8545 3.62766C81.1847 3.79991 81.6475 3.94442 82.243 4.06119C82.7147 4.16045 83.036 4.26117 83.207 4.36335C83.378 4.46553 83.4635 4.59544 83.4635 4.75308C83.4635 4.92825 83.3692 5.064 83.1805 5.16034C82.9918 5.25668 82.7206 5.30485 82.3668 5.30485C82.019 5.30485 81.6726 5.25376 81.3277 5.15158C80.9828 5.0494 80.657 4.90197 80.3504 4.70929L79.8286 5.87412C80.1175 6.08432 80.4919 6.25073 80.9518 6.37334C81.4117 6.49595 81.8775 6.55726 82.3492 6.55726Z" fill="white"/>
<path d="M49.2524 19.9211V18.5898H46.5844V13.6853H44.918V19.9211H49.2524ZM57.877 19.9211V18.6599H54.9962V17.3812H57.6909V16.12H54.9962V14.9464H57.877V13.6853H53.3741V19.9211H57.877ZM64.2502 19.9999C65.1188 19.9999 65.7925 19.8262 66.2711 19.4788C66.7498 19.1314 66.9891 18.6541 66.9891 18.0468C66.9891 17.7257 66.9212 17.4498 66.7852 17.2192C66.6493 16.9885 66.4174 16.7871 66.0894 16.6149C65.7615 16.4426 65.3109 16.2952 64.7377 16.1726C64.3831 16.0967 64.1172 16.0252 63.9399 15.958C63.7626 15.8909 63.6415 15.8223 63.5765 15.7522C63.5115 15.6821 63.479 15.5945 63.479 15.4894C63.479 15.2968 63.5706 15.1435 63.7538 15.0296C63.937 14.9158 64.1793 14.8589 64.4806 14.8589C64.7879 14.8589 65.0952 14.9099 65.4025 15.0121C65.7098 15.1143 66.0023 15.2617 66.28 15.4544L66.7941 14.2896C66.5518 14.0852 66.2165 13.9203 65.7881 13.7947C65.3596 13.6692 64.9179 13.6064 64.4629 13.6064C63.9547 13.6064 63.5026 13.6926 63.1067 13.8648C62.7108 14.0371 62.4035 14.2764 62.1849 14.583C61.9662 14.8895 61.8569 15.2325 61.8569 15.6121C61.8569 15.9449 61.9234 16.228 62.0564 16.4616C62.1893 16.6952 62.4212 16.898 62.7522 17.0703C63.0831 17.2425 63.547 17.387 64.1438 17.5038C64.6165 17.6031 64.9386 17.7038 65.11 17.806C65.2813 17.9082 65.367 18.0381 65.367 18.1957C65.367 18.3709 65.2725 18.5066 65.0834 18.603C64.8943 18.6993 64.6225 18.7475 64.2679 18.7475C63.9192 18.7475 63.5721 18.6964 63.2264 18.5942C62.8807 18.492 62.5542 18.3446 62.2469 18.1519L61.7239 19.3168C62.0135 19.5269 62.3887 19.6934 62.8497 19.816C63.3106 19.9386 63.7774 19.9999 64.2502 19.9999ZM75.5782 19.9211V18.5898H72.9102V13.6853H71.2438V19.9211H75.5782ZM81.3664 19.9211V13.6853H79.7V19.9211H81.3664ZM90.3278 19.9211V18.6599H87.447V17.3812H90.1417V16.12H87.447V14.9464H90.3278V13.6853H85.8249V19.9211H90.3278Z" fill="white"/>
</svg>
