<svg width="66" height="66" viewBox="0 0 66 66" fill="none" xmlns="http://www.w3.org/2000/svg">
<rect width="66" height="66" fill="#1E1E1E"/>
<g id="BigSolve Homepage Dark Blue" clip-path="url(#clip0_0_1)">
<rect width="1728" height="6345" transform="translate(-250 -1649)" fill="white"/>
<rect id="Rectangle 126" x="-250" y="-606" width="1728" height="900" fill="#F8FAFB"/>
<g id="1 ">
<g id="Group 57">
<rect id="Rectangle 122" width="65.3465" height="65.3465" rx="13.6139" fill="white"/>
<g id="Group 56">
<path id="Vector" d="M27.4861 16.3367H19.9504C17.8695 16.3367 16.1826 18.0246 16.1826 20.1067V27.6466C16.1826 29.7288 17.8695 31.4166 19.9504 31.4166H27.4861C29.567 31.4166 31.2539 29.7288 31.2539 27.6466V20.1067C31.2539 18.0246 29.567 16.3367 27.4861 16.3367Z" fill="#0A2FD6"/>
<path id="Vector_2" d="M45.0691 16.3367H37.5334C35.4525 16.3367 33.7656 18.0246 33.7656 20.1067V27.6466C33.7656 29.7288 35.4525 31.4166 37.5334 31.4166H45.0691C47.15 31.4166 48.8369 29.7288 48.8369 27.6466V20.1067C48.8369 18.0246 47.15 16.3367 45.0691 16.3367Z" fill="#0A2FD6"/>
<path id="Vector_3" d="M27.4861 33.9299H19.9504C17.8695 33.9299 16.1826 35.6178 16.1826 37.6999V45.2399C16.1826 47.322 17.8695 49.0099 19.9504 49.0099H27.4861C29.567 49.0099 31.2539 47.322 31.2539 45.2399V37.6999C31.2539 35.6178 29.567 33.9299 27.4861 33.9299Z" fill="#0A2FD6"/>
<path id="Vector_4" d="M47.5809 40.2133H42.5572V35.1866C42.5572 34.8533 42.4249 34.5337 42.1893 34.298C41.9538 34.0623 41.6343 33.9299 41.3012 33.9299C40.9682 33.9299 40.6487 34.0623 40.4132 34.298C40.1776 34.5337 40.0453 34.8533 40.0453 35.1866V40.2133H35.0216C34.6885 40.2133 34.369 40.3456 34.1335 40.5813C33.8979 40.817 33.7656 41.1366 33.7656 41.4699C33.7656 41.8032 33.8979 42.1228 34.1335 42.3585C34.369 42.5942 34.6885 42.7266 35.0216 42.7266H40.0453V47.7532C40.0453 48.0865 40.1776 48.4062 40.4132 48.6418C40.6487 48.8775 40.9682 49.0099 41.3012 49.0099C41.6343 49.0099 41.9538 48.8775 42.1893 48.6418C42.4249 48.4062 42.5572 48.0865 42.5572 47.7532V42.7266H47.5809C47.914 42.7266 48.2335 42.5942 48.469 42.3585C48.7046 42.1228 48.8369 41.8032 48.8369 41.4699C48.8369 41.1366 48.7046 40.817 48.469 40.5813C48.2335 40.3456 47.914 40.2133 47.5809 40.2133Z" fill="#0A2FD6"/>
</g>
</g>
</g>
</g>
<defs>
<clipPath id="clip0_0_1">
<rect width="1728" height="6345" fill="white" transform="translate(-250 -1649)"/>
</clipPath>
</defs>
</svg>
