<svg width="66" height="66" viewBox="0 0 66 66" fill="none" xmlns="http://www.w3.org/2000/svg">
<rect width="65.3465" height="65.3465" rx="13.6139" fill="white"/>
<g clip-path="url(#clip0_511_89)">
<path d="M24.9177 23.7238L22.2122 21.0166C21.8385 20.6427 21.233 20.6427 20.8594 21.0166C20.4857 21.3905 20.4857 21.9963 20.8594 22.3702L23.565 25.0774C23.9386 25.4513 24.5441 25.4513 24.9177 25.0774C25.2914 24.7035 25.2914 24.0977 24.9177 23.7238Z" fill="#0A2FD6"/>
<path d="M20.8791 31.5657H16.9887C16.4599 31.5657 16.032 31.9938 16.032 32.5229C16.032 33.052 16.4599 33.4801 16.9887 33.4801H20.8791C21.4079 33.4801 21.8358 33.052 21.8358 32.5229C21.8358 31.9938 21.4079 31.5657 20.8791 31.5657Z" fill="#0A2FD6"/>
<path d="M47.7297 31.5657H43.8392C43.3105 31.5657 42.8826 31.9938 42.8826 32.5229C42.8826 33.052 43.3105 33.4801 43.8392 33.4801H47.7297C48.2585 33.4801 48.6864 33.052 48.6864 32.5229C48.6864 31.9938 48.2585 31.5657 47.7297 31.5657Z" fill="#0A2FD6"/>
<path d="M43.8589 21.0166C43.4852 20.6427 42.8798 20.6427 42.5061 21.0166L39.8005 23.7238C39.4268 24.0977 39.4268 24.7035 39.8005 25.0774C40.1742 25.4513 40.7796 25.4513 41.1533 25.0774L43.8589 22.3702C44.2326 21.9963 44.2326 21.3906 43.8589 21.0166Z" fill="#0A2FD6"/>
<path d="M32.3593 16.1863C31.8305 16.1863 31.4026 16.6144 31.4026 17.1435V21.0362C31.4026 21.5653 31.8305 21.9934 32.3593 21.9934C32.888 21.9934 33.3159 21.5653 33.3159 21.0362V17.1435C33.3159 16.6144 32.888 16.1863 32.3593 16.1863Z" fill="#0A2FD6"/>
<path d="M37.7165 25.7649C35.631 24.1184 32.9331 23.525 30.2927 24.1568C27.2314 24.8651 24.7632 27.2964 24.017 30.3405C23.2708 33.4035 24.1318 36.5049 26.332 38.6682C27.1166 39.4532 27.5758 40.6848 27.5758 41.9484V42.159C27.5758 42.695 27.9966 43.1162 28.5324 43.1162H36.1858C36.7216 43.1162 37.1425 42.695 37.1425 42.159V41.9484C37.1425 40.7039 37.6208 39.434 38.4627 38.6108C40.07 36.9835 40.9692 34.8203 40.9692 32.5229C40.9692 29.881 39.7829 27.4113 37.7165 25.7649ZM32.3591 29.6513C30.9158 29.6513 29.8651 30.6092 29.59 31.7181C29.4648 32.2224 28.9576 32.5443 28.4306 32.4173C27.9186 32.2902 27.6056 31.7704 27.7327 31.2582C28.2067 29.3437 30.0039 27.7368 32.3591 27.7368C32.8879 27.7368 33.3158 28.1649 33.3158 28.694C33.3158 29.2231 32.8879 29.6513 32.3591 29.6513Z" fill="#0A2FD6"/>
<path d="M28.5325 45.0306V45.9879C28.5325 47.5714 29.8199 48.8595 31.4025 48.8595H33.3158C34.8984 48.8595 36.1858 47.5714 36.1858 45.9879V45.0306H28.5325Z" fill="#0A2FD6"/>
</g>
<defs>
<clipPath id="clip0_511_89">
<rect width="32.6544" height="32.6733" fill="white" transform="translate(16.032 16.1863)"/>
</clipPath>
</defs>
</svg>
