<svg width="66" height="66" viewBox="0 0 66 66" fill="none" xmlns="http://www.w3.org/2000/svg">
<rect width="65.3465" height="65.3465" rx="13.6139" fill="white"/>
<path d="M35.9268 38.4553C37.199 37.3598 38.006 35.7377 38.006 33.9305V33.6159C38.006 30.3245 35.3298 27.6469 32.0404 27.6469C28.751 27.6469 26.0748 30.3245 26.0748 33.6159V33.9305C26.0748 35.7377 26.8818 37.3598 28.1541 38.4553C24.0462 39.7176 21.0513 43.549 21.0513 48.0676C21.0513 48.5881 21.473 49.01 21.9932 49.01H42.0876C42.6078 49.01 43.0295 48.588 43.0295 48.0675C43.0295 43.549 40.0346 39.7176 35.9268 38.4553Z" fill="#0A2FD6"/>
<path d="M37.0635 19.9882C36.9695 19.6985 36.7412 19.4721 36.4509 19.3805L34.1861 18.6664L32.8074 16.7321C32.6307 16.4841 32.345 16.3368 32.0405 16.3368C31.736 16.3368 31.4503 16.4841 31.2735 16.7321L29.895 18.6666L27.6303 19.3806C27.3399 19.4723 27.1117 19.6986 27.0175 19.9884C26.9235 20.278 26.9751 20.5955 27.1563 20.8403L28.569 22.7499L28.5479 25.1258C28.5452 25.4303 28.6898 25.7175 28.9362 25.8967C29.0992 26.0152 29.2934 26.0766 29.4899 26.0766C29.5903 26.0766 29.6912 26.0605 29.7889 26.0278L32.0405 25.2736L34.2922 26.0278C34.581 26.1247 34.8986 26.0757 35.1449 25.8965C35.3912 25.7175 35.5359 25.4303 35.5331 25.1256L35.512 22.7498L36.9248 20.8402C37.1059 20.5954 37.1576 20.278 37.0635 19.9882Z" fill="#0A2FD6"/>
<path d="M48.3664 22.8161C48.2724 22.5264 48.0441 22.3 47.7537 22.2085L45.489 21.4945L44.1104 19.5599C43.9337 19.312 43.648 19.1647 43.3435 19.1647C43.039 19.1647 42.7533 19.312 42.5766 19.5599L41.198 21.4945L38.9333 22.2085C38.6429 22.3 38.4146 22.5264 38.3206 22.8161C38.2264 23.1058 38.2781 23.4233 38.4593 23.6681L39.872 25.5778L39.8509 27.9536C39.8482 28.2583 39.9928 28.5454 40.2391 28.7245C40.4855 28.9037 40.8031 28.9523 41.0918 28.8558L43.3435 28.1016L45.5952 28.8558C45.6928 28.8886 45.7938 28.9045 45.8942 28.9045C46.0906 28.9045 46.2849 28.843 46.4479 28.7245C46.6942 28.5455 46.8388 28.2583 46.8361 27.9536L46.815 25.5778L48.2277 23.6681C48.4089 23.4233 48.4606 23.1058 48.3664 22.8161Z" fill="#0A2FD6"/>
<path d="M25.7603 22.8161C25.6662 22.5264 25.438 22.3 25.1476 22.2084L22.8829 21.4944L21.5042 19.5599C21.3275 19.312 21.0418 19.1647 20.7373 19.1647C20.4328 19.1647 20.1471 19.312 19.9703 19.5599L18.5918 21.4945L16.327 22.2085C16.0366 22.3 15.8084 22.5264 15.7143 22.8161C15.6202 23.1058 15.6719 23.4233 15.8531 23.6681L17.2658 25.5778L17.2447 27.9536C17.242 28.2582 17.3866 28.5454 17.633 28.7245C17.8793 28.9036 18.197 28.9523 18.4857 28.8558L20.7373 28.1016L22.989 28.8558C23.0866 28.8884 23.1875 28.9044 23.2879 28.9044C23.4843 28.9044 23.6786 28.8429 23.8416 28.7244C24.0879 28.5454 24.2326 28.2582 24.2299 27.9536L24.2088 25.5777L25.6215 23.668C25.8027 23.4233 25.8544 23.1058 25.7603 22.8161Z" fill="#0A2FD6"/>
</svg>
