<svg width="180" height="51" viewBox="0 0 180 51" fill="none" xmlns="http://www.w3.org/2000/svg">
<path d="M30.0758 4.19605C26.9284 1.41187 22.6498 0 17.3595 0C12.325 0 8.19269 1.39533 5.07739 4.14781C1.95246 6.90834 0.244311 9.65238 0.00100174 13.6132C-0.0161586 13.8955 0.189065 14.1431 0.469846 14.1779L8.81957 15.8731C8.79759 15.8731 8.84207 15.8758 8.81957 15.8731C9.06874 15.8731 9.28894 15.6995 9.34305 15.4503C9.89279 12.9052 10.9024 10.9955 12.3442 9.77429C13.7786 8.55906 15.5955 7.94287 17.7448 7.94287C19.9738 7.94287 21.7602 8.52903 23.0548 9.68481C24.3492 10.8411 24.9789 12.186 24.9789 13.7962C24.9789 14.9498 24.6258 15.9786 23.8992 16.9409C23.5687 17.3674 22.4932 18.4326 19.2692 21.0539C16.5906 23.2315 14.7725 25.2338 13.8648 27.0041C12.9523 28.7847 12.4893 30.2948 12.4893 33.0228L17.1189 36.8395L21.7386 33.0228C21.7386 33.0228 21.5727 33.6036 22.3544 31.0116C23.1362 28.4196 27.3452 25.542 28.1275 24.8916C31.8872 21.7656 31.9146 21.8313 33.0795 19.9903C34.2528 18.1348 34.8482 16.1372 34.8482 14.0533C34.8478 10.3135 33.2419 6.9973 30.0758 4.19605Z" fill="white"/>
<path d="M34.8273 26.7998L17.0923 41.8255L9.29297 35.18V40.8221L16.5897 50.8296L34.8273 32.027V26.7998Z" fill="#F7CE47"/>
<path d="M57.3822 20.5092C62.7166 20.5092 66.3199 24.4305 66.3199 30.2947C66.3199 36.053 62.8225 39.9036 57.4882 39.9036C54.8387 39.9036 52.7544 38.8438 51.3767 36.9362V39.6917H45.9363V13.4792H51.3767V23.4766C52.7191 21.569 54.8034 20.5092 57.3822 20.5092ZM56.1104 35.3818C58.9013 35.3818 60.8089 33.2268 60.8089 30.1181C60.8089 27.08 58.9013 24.8897 56.1104 24.8897C53.3196 24.8897 51.3767 27.0447 51.3767 30.1181C51.3767 33.2622 53.3196 35.3818 56.1104 35.3818ZM70.8282 12.2427C72.5592 12.2427 73.7603 13.5145 73.7603 15.2808C73.7603 17.0472 72.5592 18.3189 70.8282 18.3189C69.0972 18.3189 67.8961 17.0472 67.8961 15.2808C67.8961 13.5145 69.0972 12.2427 70.8282 12.2427ZM73.5484 39.6917H68.108V20.6858H73.5484V39.6917ZM94.8066 20.6858V37.9253C94.8066 43.3303 90.744 46.757 84.6678 46.757C81.453 46.757 78.5915 45.7325 76.4013 44.2488L78.4149 40.4335C80.1459 41.67 82.1596 42.3412 84.3145 42.3412C87.4233 42.3412 89.4016 40.6808 89.4016 38.1019V35.947C88.1298 37.7133 86.1868 38.7025 83.6786 38.7025C78.7682 38.7025 75.3768 35.0285 75.3768 29.5175C75.3768 24.1479 78.6975 20.5092 83.5373 20.5092C86.1162 20.4739 88.0945 21.4983 89.4016 23.2647V20.6858H94.8066ZM84.9504 34.5693C87.5999 34.5693 89.4016 32.5556 89.4016 29.6588C89.4016 26.7267 87.5999 24.7131 84.9504 24.7131C82.3009 24.7131 80.4992 26.762 80.4639 29.6588C80.4992 32.5556 82.2655 34.5693 84.9504 34.5693Z" fill="white"/>
<path d="M105.863 21.0078C108.23 21.0078 110.738 21.7143 112.434 22.9154L110.95 25.9182C109.29 24.8937 107.205 24.2578 105.545 24.2578C103.955 24.2578 102.789 24.7877 102.789 26.1302C102.789 29.5922 112.787 27.7199 112.752 34.5379C112.752 38.3886 109.325 40.1196 105.545 40.1196C102.789 40.1196 99.8573 39.2011 97.985 37.5054L99.4334 34.6086C101.058 36.057 103.673 36.9402 105.722 36.9402C107.453 36.9402 108.795 36.3396 108.795 34.9265C108.795 31.0759 98.9035 33.2308 98.9389 26.4481C98.9389 22.6328 102.26 21.0078 105.863 21.0078ZM123.128 21.0431C128.922 21.0431 132.914 24.8937 132.914 30.5813C132.914 36.2336 128.922 40.1196 123.128 40.1196C117.299 40.1196 113.307 36.2336 113.307 30.5813C113.307 24.8937 117.299 21.0431 123.128 21.0431ZM123.128 24.5405C119.737 24.5405 117.37 27.0133 117.37 30.6167C117.37 34.2553 119.737 36.7282 123.128 36.7282C126.484 36.7282 128.851 34.2553 128.851 30.6167C128.851 27.0133 126.484 24.5405 123.128 24.5405ZM139.626 39.9783H135.563V13.7658H139.626V39.9783ZM152.553 39.9783H148.349L141.071 21.1844H145.311L150.539 35.9863L155.697 21.1844H159.759L152.553 39.9783ZM167.879 21.0431C174.486 21.0431 177.17 25.353 176.676 32.1357H162.474C163.11 35.0325 165.336 36.8342 168.303 36.8342C170.352 36.8342 172.225 36.057 173.602 34.6439L175.757 36.9402C173.92 38.9538 171.235 40.1196 167.985 40.1196C162.192 40.1196 158.376 36.269 158.376 30.6167C158.376 24.929 162.298 21.0784 167.879 21.0431ZM162.404 29.1683H173.143C173.002 26.1302 170.988 24.2932 167.915 24.2932C164.947 24.2932 162.863 26.1655 162.404 29.1683Z" fill="#F7CE47"/>
</svg>
