<svg width="22" height="22" viewBox="0 0 22 22" fill="none" xmlns="http://www.w3.org/2000/svg">
<path d="M0.936048 2.25191L0.93589 16.4457C0.93589 16.8509 1.09461 17.2321 1.38234 17.52C1.67039 17.8082 2.05137 17.9667 2.45615 17.9669L3.74424 17.9667C4.14869 17.9669 4.53015 17.8082 4.81804 17.5201C5.10578 17.2322 5.27343 16.8415 5.27327 16.4368L5.28237 8.14729L18.4283 21.3009C19.021 21.8939 19.9534 21.8982 20.5462 21.305L21.4569 20.3939C22.0497 19.8007 22.0922 18.821 21.4995 18.2279L8.3066 5.02738L16.6612 5.04191C17.066 5.04175 17.4401 4.89046 17.728 4.6024C18.0156 4.31466 18.1706 3.93649 18.1706 3.53164L18.1687 2.24488C18.1687 1.83972 18.0093 1.45947 17.7213 1.17125C17.4336 0.883355 17.0519 0.725187 16.647 0.725187L2.46157 0.725188C2.05552 0.725348 1.67278 0.884954 1.38537 1.17413C1.09556 1.46283 0.935729 1.84579 0.936048 2.25191Z" fill="#767676"/>
</svg>
