<svg width="22" height="22" viewBox="0 0 22 22" fill="none" xmlns="http://www.w3.org/2000/svg">
<path d="M19.8928 0.724807L5.70718 0.724648C5.30224 0.724648 4.92126 0.883455 4.63353 1.17135C4.34548 1.45957 4.18708 1.84078 4.18692 2.24578L4.18708 3.53462C4.18692 3.93931 4.34548 4.32099 4.63337 4.60905C4.9211 4.89695 5.31166 5.0647 5.71612 5.06454L14.0008 5.07365L0.854845 18.2272C0.262135 18.8203 0.257824 19.7531 0.850694 20.3464L1.76131 21.2575C2.35418 21.8507 3.3333 21.8932 3.92601 21.3002L17.1189 8.09962L17.1044 16.4591C17.1045 16.8641 17.2558 17.2384 17.5436 17.5265C17.8312 17.8142 18.2092 17.9694 18.6138 17.9694L19.8998 17.9674C20.3047 17.9674 20.6848 17.808 20.9728 17.5198C21.2605 17.2319 21.4186 16.85 21.4186 16.4449L21.4186 2.25121C21.4185 1.84493 21.2589 1.46197 20.9699 1.17439C20.6814 0.884414 20.2987 0.724488 19.8928 0.724807Z" fill="white"/>
</svg>
