<svg width="195" height="96" viewBox="0 0 195 96" fill="none" xmlns="http://www.w3.org/2000/svg">
<g clip-path="url(#clip0_1_62)" filter="url(#filter0_d_1_62)">
<path fill-rule="evenodd" clip-rule="evenodd" d="M22.4647 79.5941L23.4469 81.0982L25.8576 79.5391L24.8881 78.0254L22.4647 79.5941Z" fill="#FEFEFE"/>
<path fill-rule="evenodd" clip-rule="evenodd" d="M18.1861 82.5078L19.1867 84.0008L21.5543 82.3725L20.5636 80.8707L18.1861 82.5078Z" fill="#FEFEFE"/>
<path fill-rule="evenodd" clip-rule="evenodd" d="M13.9314 85.4307L14.9554 86.9081L17.3238 85.2827L16.3125 83.7957L13.9314 85.4307Z" fill="#FEFEFE"/>
<path fill-rule="evenodd" clip-rule="evenodd" d="M35.6081 71.2922L36.5271 72.835L38.9845 71.3473L38.0746 69.7927L35.6081 71.2922Z" fill="#FEFEFE"/>
<path fill-rule="evenodd" clip-rule="evenodd" d="M31.182 73.9751L32.1231 75.5089L34.5797 74.0182L33.6493 72.4785L31.182 73.9751Z" fill="#FEFEFE"/>
<path fill-rule="evenodd" clip-rule="evenodd" d="M26.8419 76.7626L27.8043 78.2844L30.215 76.7254L29.266 75.1968L26.8419 76.7626Z" fill="#FEFEFE"/>
<path fill-rule="evenodd" clip-rule="evenodd" d="M49.0467 63.4858L49.9025 65.0672L52.4359 63.7144L51.5907 62.127L49.0467 63.4858Z" fill="#FEFEFE"/>
<path fill-rule="evenodd" clip-rule="evenodd" d="M44.5497 66.0419L45.4269 67.6114L47.9244 66.1937L47.058 64.6181L44.5497 66.0419Z" fill="#FEFEFE"/>
<path fill-rule="evenodd" clip-rule="evenodd" d="M40.0663 68.5912L40.9648 70.1488L43.4624 68.731L42.5746 67.1675L40.0663 68.5912Z" fill="#FEFEFE"/>
<path fill-rule="evenodd" clip-rule="evenodd" d="M62.8248 56.306L63.6187 57.9196L66.1881 56.6441L65.4077 55.0237L62.8248 56.306Z" fill="#FEFEFE"/>
<path fill-rule="evenodd" clip-rule="evenodd" d="M58.197 58.6144L59.0131 60.219C59.8578 59.769 60.7227 59.3602 61.5765 58.9327L60.774 57.3214C59.9153 57.7534 59.0477 58.1753 58.197 58.6144Z" fill="#FEFEFE"/>
<path fill-rule="evenodd" clip-rule="evenodd" d="M53.6428 61.0368L54.4802 62.6295L57.0143 61.2796L56.1913 59.6831L53.6428 61.0368Z" fill="#FEFEFE"/>
<path fill-rule="evenodd" clip-rule="evenodd" d="M76.8578 49.6418L77.5863 51.2854C78.4512 50.8766 79.3327 50.5068 80.2119 50.1284L79.4941 48.4788C78.6113 48.8552 77.7248 49.2294 76.8578 49.6418Z" fill="#FEFEFE"/>
<path fill-rule="evenodd" clip-rule="evenodd" d="M72.1615 51.8102L72.9121 53.4448L75.5167 52.2437L74.7789 50.5995L72.1615 51.8102Z" fill="#FEFEFE"/>
<path fill-rule="evenodd" clip-rule="evenodd" d="M67.4894 53.9875L68.2621 55.613C69.1135 55.1768 69.9935 54.8012 70.8584 54.3924L70.1136 52.7564C69.2287 53.1705 68.3437 53.5505 67.4894 53.9875Z" fill="#FEFEFE"/>
<path fill-rule="evenodd" clip-rule="evenodd" d="M91.164 43.6L91.827 45.2736L94.4956 44.2199L93.8434 42.5404L91.164 43.6Z" fill="#FEFEFE"/>
<path fill-rule="evenodd" clip-rule="evenodd" d="M86.3694 45.5369L87.0545 47.2014L88.374 46.6366L89.7066 46.1087L89.0358 44.4404L87.6947 44.9705L86.3694 45.5369Z" fill="#FEFEFE"/>
<path fill-rule="evenodd" clip-rule="evenodd" d="M81.63 47.5648L82.3371 49.2203L84.9763 48.0907L84.2806 46.4321L81.63 47.5648Z" fill="#FEFEFE"/>
<path fill-rule="evenodd" clip-rule="evenodd" d="M105.692 38.1202L106.289 39.8237C107.191 39.5046 108.083 39.1536 108.993 38.8663L108.41 37.159C107.494 37.4477 106.599 37.7995 105.692 38.1202Z" fill="#FEFEFE"/>
<path fill-rule="evenodd" clip-rule="evenodd" d="M100.833 39.8851L101.45 41.5738L104.149 40.5961L103.541 38.9014L100.833 39.8851Z" fill="#FEFEFE"/>
<path fill-rule="evenodd" clip-rule="evenodd" d="M96.0054 41.688L96.6485 43.3792C97.5376 43.0261 98.4266 42.673 99.3271 42.3509L98.6982 40.6559C97.7913 40.9765 96.8994 41.3304 96.0054 41.688Z" fill="#FEFEFE"/>
<path fill-rule="evenodd" clip-rule="evenodd" d="M120.436 33.2533L120.965 34.9752L123.713 34.1488L123.199 32.4259L120.436 33.2533Z" fill="#FEFEFE"/>
<path fill-rule="evenodd" clip-rule="evenodd" d="M115.508 34.8067L116.06 36.5225C116.967 36.2266 117.868 35.9074 118.785 35.6339L118.247 33.9143C117.319 34.1909 116.421 34.5093 115.508 34.8067Z" fill="#FEFEFE"/>
<path fill-rule="evenodd" clip-rule="evenodd" d="M110.617 36.4279L111.19 38.1318L113.912 37.2316L113.352 35.521L110.617 36.4279Z" fill="#FEFEFE"/>
<path fill-rule="evenodd" clip-rule="evenodd" d="M135.368 28.9945L135.828 30.7348L138.598 29.9896L138.152 28.2455L135.368 28.9945Z" fill="#FEFEFE"/>
<path fill-rule="evenodd" clip-rule="evenodd" d="M130.378 30.3408L130.858 32.0757L133.631 31.3297L133.162 29.5917L130.378 30.3408Z" fill="#FEFEFE"/>
<path fill-rule="evenodd" clip-rule="evenodd" d="M125.422 31.7557L125.928 33.4838L128.678 32.6632L128.186 30.9313L125.422 31.7557Z" fill="#FEFEFE"/>
<path fill-rule="evenodd" clip-rule="evenodd" d="M150.46 25.3453L150.847 27.1018L153.656 26.5138L153.283 24.7535L150.46 25.3453Z" fill="#FEFEFE"/>
<path fill-rule="evenodd" clip-rule="evenodd" d="M145.421 26.4994L145.832 28.2498L148.622 27.5828L148.225 25.8256L145.421 26.4994Z" fill="#FEFEFE"/>
<path fill-rule="evenodd" clip-rule="evenodd" d="M140.411 27.6991L140.845 29.4463L143.635 28.7764L143.212 27.0261L140.411 27.6991Z" fill="#FEFEFE"/>
<path fill-rule="evenodd" clip-rule="evenodd" d="M165.695 22.3469L166.014 24.1189L168.838 23.6107L168.533 21.8349L165.695 22.3469Z" fill="#FEFEFE"/>
<path fill-rule="evenodd" clip-rule="evenodd" d="M160.608 23.2624L160.947 25.0291L163.771 24.5209L163.444 22.7512L160.608 23.2624Z" fill="#FEFEFE"/>
<path fill-rule="evenodd" clip-rule="evenodd" d="M155.558 24.2773L155.92 26.0408L158.728 25.4499L158.378 23.6863L155.558 24.2773Z" fill="#FEFEFE"/>
<path fill-rule="evenodd" clip-rule="evenodd" d="M172.798 12.8525L172.422 14.6086C172.868 14.7036 173.306 14.819 173.734 14.9281L174.154 13.1816C173.711 13.0706 173.256 12.9503 172.798 12.8525Z" fill="#FEFEFE"/>
<path fill-rule="evenodd" clip-rule="evenodd" d="M170.327 12.359L170.037 14.1328C170.482 14.206 170.926 14.2952 171.373 14.396L171.712 12.631C171.249 12.5282 170.79 12.4371 170.327 12.359Z" fill="#FEFEFE"/>
<path fill-rule="evenodd" clip-rule="evenodd" d="M167.846 11.9864L167.638 13.7692C168.087 13.8227 168.534 13.8893 168.982 13.9589L169.237 12.179C168.774 12.1075 168.312 12.0418 167.846 11.9864Z" fill="#FEFEFE"/>
<path d="M171.226 32.3039L169.826 33.8901L171.155 35.0934L172.556 33.5072L171.226 32.3039Z" fill="#FEFEFE"/>
<path d="M173.738 29.4638L172.337 31.05L173.666 32.2533L175.067 30.6671L173.738 29.4638Z" fill="#FEFEFE"/>
<path d="M176.241 26.6289L174.84 28.2151L176.169 29.4183L177.57 27.8321L176.241 26.6289Z" fill="#FEFEFE"/>
<path fill-rule="evenodd" clip-rule="evenodd" d="M176.289 13.6318L175.797 15.3662L176.253 15.4989L176.702 15.6425L177.154 15.7854L177.379 15.8587L177.601 15.9356L178.496 16.2427L179.387 16.5723L180 14.8799L179.082 14.5419L178.156 14.2215L177.924 14.144L177.692 14.0664L177.223 13.9187L176.758 13.7701L176.289 13.6318Z" fill="#FEFEFE"/>
<path fill-rule="evenodd" clip-rule="evenodd" d="M186.409 17.7902L185.549 17.3467L184.673 16.9042L183.788 16.4829L183.567 16.3776L183.343 16.2759L182.9 16.0842L182.187 17.7351L182.883 18.0455L183.582 18.3675L183.551 18.4349L183.535 18.4671C183.53 18.4549 183.527 18.4423 183.525 18.4294L183.512 18.4485L183.385 18.5913L183.131 18.8798L182.623 19.4539L183.949 20.6515L185.226 19.2068L185.865 18.4826L186.185 18.1205L186.345 17.9409L186.385 17.896L186.381 17.8786L186.409 17.7902Z" fill="#FEFEFE"/>
<path d="M180.526 21.7784L177.972 24.6702L179.301 25.8734L181.855 22.9817L180.526 21.7784Z" fill="#FEFEFE"/>
</g>
<defs>
<filter id="filter0_d_1_62" x="-4" y="0" width="202.21" height="103.574" filterUnits="userSpaceOnUse" color-interpolation-filters="sRGB">
<feFlood flood-opacity="0" result="BackgroundImageFix"/>
<feColorMatrix in="SourceAlpha" type="matrix" values="0 0 0 0 0 0 0 0 0 0 0 0 0 0 0 0 0 0 127 0" result="hardAlpha"/>
<feOffset dy="4"/>
<feGaussianBlur stdDeviation="2"/>
<feComposite in2="hardAlpha" operator="out"/>
<feColorMatrix type="matrix" values="0 0 0 0 0 0 0 0 0 0 0 0 0 0 0 0 0 0 0.25 0"/>
<feBlend mode="normal" in2="BackgroundImageFix" result="effect1_dropShadow_1_62"/>
<feBlend mode="normal" in="SourceGraphic" in2="effect1_dropShadow_1_62" result="shape"/>
</filter>
<clipPath id="clip0_1_62">
<rect width="188.05" height="48.5574" fill="white" transform="translate(0 48.6709) rotate(-15)"/>
</clipPath>
</defs>
</svg>
